<?xml version="1.0" encoding="utf-8"?>
<!-- Generator: Adobe Illustrator 26.3.1, SVG Export Plug-In . SVG Version: 6.00 Build 0)  -->
<svg version="1.1" id="Layer_1" xmlns="http://www.w3.org/2000/svg" xmlns:xlink="http://www.w3.org/1999/xlink" x="0px" y="0px"
	 viewBox="0 0 1080 1080" style="enable-background:new 0 0 1080 1080;" xml:space="preserve">
<style type="text/css">
	.st0{fill:#11122B;}
	.st1{fill-rule:evenodd;clip-rule:evenodd;fill:url(#SVGID_1_);}
	.st2{fill-rule:evenodd;clip-rule:evenodd;fill:url(#SVGID_00000175308893711601813110000014265191355305990055_);}
	.st3{fill-rule:evenodd;clip-rule:evenodd;fill:url(#SVGID_00000021102566229114515790000003654817757629821574_);}
	.st4{fill-rule:evenodd;clip-rule:evenodd;fill:url(#SVGID_00000138562110469666079610000009791928152166598789_);}
	.st5{fill-rule:evenodd;clip-rule:evenodd;fill:url(#SVGID_00000119084441789319889000000012040166376385250492_);}
	.st6{fill-rule:evenodd;clip-rule:evenodd;fill:url(#SVGID_00000060028832201457773420000015390420529691489712_);}
	.st7{fill:url(#SVGID_00000170263853394393507420000005098050978143076777_);}
	.st8{fill-rule:evenodd;clip-rule:evenodd;fill:url(#SVGID_00000106829679255900395090000006086713087030107016_);}
	.st9{fill-rule:evenodd;clip-rule:evenodd;fill:url(#SVGID_00000035518116139865229210000000604515775289601430_);}
	.st10{fill-rule:evenodd;clip-rule:evenodd;fill:url(#SVGID_00000102527768981527138540000017528054516949479330_);}
	.st11{fill-rule:evenodd;clip-rule:evenodd;fill:url(#SVGID_00000047055276588473632880000016471704022735710373_);}
	.st12{fill-rule:evenodd;clip-rule:evenodd;fill:url(#SVGID_00000183969596232285272640000012111478789963084193_);}
	.st13{fill-rule:evenodd;clip-rule:evenodd;fill:url(#SVGID_00000158714715088092811790000005073254281228751284_);}
	.st14{fill:url(#SVGID_00000028285344002241725880000012094646647234622093_);}
	.st15{fill:#FFFFFF;}
	.st16{fill-rule:evenodd;clip-rule:evenodd;fill:url(#SVGID_00000028291070916752212670000012928617320508401585_);}
	.st17{fill-rule:evenodd;clip-rule:evenodd;fill:url(#SVGID_00000067927182989739666180000010534330099477610639_);}
	.st18{fill-rule:evenodd;clip-rule:evenodd;fill:url(#SVGID_00000045616182877641757930000012426824341339006100_);}
	.st19{fill-rule:evenodd;clip-rule:evenodd;fill:url(#SVGID_00000105405287457002433710000008700515505014121911_);}
	.st20{fill-rule:evenodd;clip-rule:evenodd;fill:url(#SVGID_00000021811983751597601980000018422177879373827247_);}
	.st21{fill-rule:evenodd;clip-rule:evenodd;fill:url(#SVGID_00000016065083771071104010000010742208636013201589_);}
	.st22{fill:url(#SVGID_00000129910088871833688090000008460362602318988205_);}
	.st23{fill-rule:evenodd;clip-rule:evenodd;fill:url(#SVGID_00000142134483495878246260000005385138248682927797_);}
	.st24{fill-rule:evenodd;clip-rule:evenodd;fill:url(#SVGID_00000068647829172711081540000014567985572468683933_);}
	.st25{fill-rule:evenodd;clip-rule:evenodd;fill:url(#SVGID_00000021107613891202303930000008995435036551451048_);}
	.st26{fill-rule:evenodd;clip-rule:evenodd;fill:url(#SVGID_00000014622468337387585310000002470809639314060185_);}
	.st27{fill-rule:evenodd;clip-rule:evenodd;fill:url(#SVGID_00000106849433474171394180000017221266529005793698_);}
	.st28{fill-rule:evenodd;clip-rule:evenodd;fill:url(#SVGID_00000171719443708170469920000017406726518518013832_);}
	.st29{fill:url(#SVGID_00000182514539152992701080000014526433936816606340_);}
	.st30{fill-rule:evenodd;clip-rule:evenodd;fill:url(#SVGID_00000127001632425470942020000004133094129449708989_);}
	.st31{fill-rule:evenodd;clip-rule:evenodd;fill:url(#SVGID_00000150075866501173206070000013133708747843882422_);}
	.st32{fill-rule:evenodd;clip-rule:evenodd;fill:url(#SVGID_00000075852829233266555900000004607718222852324744_);}
	.st33{fill-rule:evenodd;clip-rule:evenodd;fill:url(#SVGID_00000029020684396294790380000004188285423003052450_);}
	.st34{fill-rule:evenodd;clip-rule:evenodd;fill:url(#SVGID_00000176732978300252218480000004150007553744966289_);}
	.st35{fill-rule:evenodd;clip-rule:evenodd;fill:url(#SVGID_00000132075594031496231960000018247388999285092778_);}
	.st36{fill-rule:evenodd;clip-rule:evenodd;fill:url(#SVGID_00000086656745379791256110000009997301090218857914_);}
	.st37{fill-rule:evenodd;clip-rule:evenodd;fill:url(#SVGID_00000171678823503531233830000013321418711948910776_);}
	.st38{fill-rule:evenodd;clip-rule:evenodd;fill:url(#SVGID_00000022550090849777983350000015733542897838666674_);}
	.st39{fill-rule:evenodd;clip-rule:evenodd;fill:url(#SVGID_00000094589808253583788430000000394608527625172916_);}
	.st40{fill-rule:evenodd;clip-rule:evenodd;fill:url(#SVGID_00000083047564801108415770000010141164346834937525_);}
	.st41{fill-rule:evenodd;clip-rule:evenodd;fill:url(#SVGID_00000145772319476082679490000001329162246637452416_);}
	.st42{fill-rule:evenodd;clip-rule:evenodd;fill:url(#SVGID_00000038405732480877008480000001342746442512389771_);}
	.st43{fill-rule:evenodd;clip-rule:evenodd;fill:url(#SVGID_00000004540822251469425410000016696962472837340815_);}
	.st44{fill-rule:evenodd;clip-rule:evenodd;fill:url(#SVGID_00000089547803330381250410000014903255544703024290_);}
	.st45{fill-rule:evenodd;clip-rule:evenodd;fill:url(#SVGID_00000114061301947828030850000012846288681780625842_);}
	.st46{fill-rule:evenodd;clip-rule:evenodd;fill:url(#SVGID_00000059990260919311562110000011348903836515381175_);}
	.st47{fill-rule:evenodd;clip-rule:evenodd;fill:url(#SVGID_00000118355199588764168020000014497080781491743653_);}
	.st48{fill:url(#SVGID_00000077311494851841866490000007371577075503687313_);}
	.st49{fill-rule:evenodd;clip-rule:evenodd;fill:url(#SVGID_00000086692420821602819600000017312319107361054910_);}
	.st50{fill-rule:evenodd;clip-rule:evenodd;fill:url(#SVGID_00000098921981073873375670000008109194996844128434_);}
	.st51{fill-rule:evenodd;clip-rule:evenodd;fill:url(#SVGID_00000083804283521948388680000014874092171470622379_);}
	.st52{fill-rule:evenodd;clip-rule:evenodd;fill:url(#SVGID_00000000931581586434792220000000073440888876338310_);}
	.st53{fill-rule:evenodd;clip-rule:evenodd;fill:url(#SVGID_00000080893373395172428040000014516178234500840597_);}
	.st54{fill-rule:evenodd;clip-rule:evenodd;fill:url(#SVGID_00000074410818691326206100000012098491734718153870_);}
	.st55{fill:url(#SVGID_00000051375563505052927720000013913175515119948718_);}
</style>
<g>
	<g>
		<linearGradient id="SVGID_1_" gradientUnits="userSpaceOnUse" x1="627.2877" y1="736.9828" x2="1080" y2="736.9828">
			<stop  offset="0" style="stop-color:#B537E3"/>
			<stop  offset="0.1962" style="stop-color:#9D45DE"/>
			<stop  offset="0.6079" style="stop-color:#6067D2"/>
			<stop  offset="1" style="stop-color:#208BC6"/>
		</linearGradient>
		<path class="st1" d="M1068.78,435.18c-18.78-25.38-54.58-30.73-79.96-11.95c-25.38,18.78-30.73,54.58-11.95,79.96
			c5.5,7.43,12.45,13.14,20.18,17.03c2.76,71.57-11.38,141.8-40.09,205.52c-31.63,70.19-81.02,132.45-145.04,179.82
			c-17.08,12.63-34.62,23.88-52.5,33.67c-13.22,7.24-26.81,13.82-40.73,19.73c-19.69-14.72-47.44-15.52-68.22-0.14
			c-25.38,18.78-30.73,54.58-11.95,79.96c18.78,25.38,54.58,30.73,79.96,11.95c11.48-8.5,18.87-20.48,21.77-33.4
			c16.79-7.01,33.2-14.91,49.16-23.65c21.02-11.51,40.94-24.2,59.59-38.01c72.65-53.75,128.75-124.51,164.73-204.39
			c33.15-73.57,49.17-154.91,45.28-237.84C1082.5,494.28,1087.02,459.82,1068.78,435.18z M698.58,1023.86
			c-10.54,7.8-25.41,5.58-33.2-4.96c-7.8-10.54-5.58-25.41,4.96-33.2c10.54-7.8,25.41-5.58,33.2,4.96
			C711.34,1001.2,709.12,1016.07,698.58,1023.86z M1036.94,488.27c-10.54,7.8-25.4,5.58-33.2-4.96c-7.8-10.54-5.58-25.41,4.96-33.2
			c10.54-7.8,25.41-5.58,33.2,4.96C1049.71,465.6,1047.48,480.47,1036.94,488.27z"/>
		
			<linearGradient id="SVGID_00000043459516629141089230000016541010775468697013_" gradientUnits="userSpaceOnUse" x1="160.2203" y1="124.3171" x2="925.0581" y2="124.3171">
			<stop  offset="0" style="stop-color:#B537E3"/>
			<stop  offset="0.1962" style="stop-color:#9D45DE"/>
			<stop  offset="0.6079" style="stop-color:#6067D2"/>
			<stop  offset="1" style="stop-color:#208BC6"/>
		</linearGradient>
		<path style="fill-rule:evenodd;clip-rule:evenodd;fill:url(#SVGID_00000043459516629141089230000016541010775468697013_);" d="
			M251.4,218.44c17.22-12.74,25.22-33.32,22.72-53.16c81.35-58.05,176.72-86.37,271.6-85.14c93.31,1.21,186.29,30.92,265.16,88.96
			c-1.01,13.21,2.55,26.83,11.05,38.32c18.78,25.38,54.58,30.73,79.96,11.95c25.38-18.78,30.73-54.58,11.95-79.96
			c-15.39-20.8-42.2-28.14-65.34-19.79C758.8,53.38,652.86,19.46,546.46,18.09c-109.72-1.42-219.78,31.7-312.88,99.56
			c-16.6-4.89-35.21-2.21-50.19,8.87c-25.38,18.78-30.73,54.58-11.95,79.96C190.22,231.87,226.02,237.22,251.4,218.44z
			 M853.76,154.33c10.54-7.8,25.4-5.58,33.2,4.96c7.8,10.54,5.58,25.4-4.96,33.2c-10.54,7.8-25.41,5.58-33.2-4.96
			C841,177,843.22,162.13,853.76,154.33z M203.28,153.4c10.54-7.8,25.41-5.58,33.2,4.96c7.8,10.54,5.58,25.41-4.96,33.2
			c-10.54,7.8-25.41,5.58-33.2-4.96C190.51,176.06,192.74,161.2,203.28,153.4z"/>
		
			<linearGradient id="SVGID_00000100367724141598268710000012374585266819022525_" gradientUnits="userSpaceOnUse" x1="-3.637979e-12" y1="717.2222" x2="437.0671" y2="717.2222">
			<stop  offset="0" style="stop-color:#B537E3"/>
			<stop  offset="0.1962" style="stop-color:#9D45DE"/>
			<stop  offset="0.6079" style="stop-color:#6067D2"/>
			<stop  offset="1" style="stop-color:#208BC6"/>
		</linearGradient>
		<path style="fill-rule:evenodd;clip-rule:evenodd;fill:url(#SVGID_00000100367724141598268710000012374585266819022525_);" d="
			M348.08,953.32c-32.65-15.08-63.44-34.05-91.79-56.43c-31.68-25.01-60.07-54.23-84.31-86.99
			c-36.29-49.05-62.04-104.25-76.38-162.18C82.4,594.38,78.79,538.71,85.42,483.33c1.97-1.12,3.89-2.37,5.76-3.75
			c25.38-18.78,30.73-54.58,11.95-79.96s-54.58-30.73-79.96-11.95c-25.38,18.78-30.73,54.58-11.95,79.96
			c3.49,4.71,7.56,8.73,12.04,12.03c-6.96,61.76-2.74,123.73,11.95,183.06c16.34,65.98,45.54,128.69,86.66,184.26
			c27.51,37.19,59.76,70.38,95.78,98.81c32.29,25.49,67.81,47.21,105.88,64.6c1.45,8.58,4.88,16.96,10.41,24.43
			c18.78,25.38,54.58,30.73,79.96,11.95c25.38-18.78,30.73-54.58,11.95-79.96C407.61,942.16,373.3,936.41,348.08,953.32z
			 M71.3,452.7c-10.54,7.8-25.41,5.58-33.2-4.96c-7.8-10.54-5.58-25.41,4.96-33.2c10.54-7.8,25.41-5.58,33.2,4.96
			C84.06,430.04,81.84,444.91,71.3,452.7z M394.01,1019.91c-10.54,7.8-25.4,5.58-33.2-4.96c-7.8-10.54-5.58-25.41,4.96-33.2
			c10.54-7.8,25.4-5.58,33.2,4.96C406.77,997.24,404.55,1012.11,394.01,1019.91z"/>
		
			<linearGradient id="SVGID_00000116921802743860581650000005096125235061716623_" gradientUnits="userSpaceOnUse" x1="218.0945" y1="391.0604" x2="843.0055" y2="391.0604">
			<stop  offset="0" style="stop-color:#B537E3"/>
			<stop  offset="0.1962" style="stop-color:#9D45DE"/>
			<stop  offset="0.6079" style="stop-color:#6067D2"/>
			<stop  offset="1" style="stop-color:#208BC6"/>
		</linearGradient>
		<path style="fill-rule:evenodd;clip-rule:evenodd;fill:url(#SVGID_00000116921802743860581650000005096125235061716623_);" d="
			M585.22,230.85c-139.63-20.87-271.27,56.54-324.72,180.3c-3.95,9.15-7.48,18.55-10.55,28.19l0.52-0.28
			c-16.47,8.86-28.71,25.12-31.7,45.05c-5.01,33.56,18.13,64.84,51.7,69.86c33.56,5.02,64.83-18.12,69.86-51.69
			c2.42-16.24-1.74-31.94-10.48-44.39l0.36,0.53c2.85-8.16,6.16-16.08,9.89-23.74c41.4-85.04,134.46-137.29,232.96-122.56
			c98.5,14.72,172.2,91.9,186.93,185.33c15.64-8.68,34.17-12.46,53.24-9.6c10.81,1.61,20.85,5.22,29.77,10.4
			C828.09,364.25,724.84,251.72,585.22,230.85z M278.26,520.7c-15.34,0-27.78-12.44-27.78-27.78c0-15.34,12.44-27.78,27.78-27.78
			s27.78,12.44,27.78,27.78C306.04,508.27,293.6,520.7,278.26,520.7z"/>
		
			<linearGradient id="SVGID_00000129904003040030163820000014490963978400662669_" gradientUnits="userSpaceOnUse" x1="855.8151" y1="673.2554" x2="267.9985" y2="673.2554">
			<stop  offset="0" style="stop-color:#B537E3"/>
			<stop  offset="0.1962" style="stop-color:#9D45DE"/>
			<stop  offset="0.6079" style="stop-color:#6067D2"/>
			<stop  offset="1" style="stop-color:#208BC6"/>
		</linearGradient>
		<path style="fill-rule:evenodd;clip-rule:evenodd;fill:url(#SVGID_00000129904003040030163820000014490963978400662669_);" d="
			M809.87,510.34c-33.57-5.02-64.84,18.12-69.86,51.69c-2.42,16.24,1.74,31.95,10.48,44.39l-0.36-0.53
			c-2.85,8.16-6.17,16.09-9.9,23.74c-41.4,85.04-134.46,137.29-232.95,122.56c-98.5-14.73-172.21-91.91-186.93-185.33
			c-15.65,8.68-34.18,12.46-53.24,9.61c-10.81-1.62-20.85-5.22-29.77-10.4c14.92,133.98,118.17,246.51,257.79,267.38
			c139.63,20.87,271.27-56.54,324.72-180.3c3.95-9.15,7.48-18.55,10.54-28.19l-0.52,0.28c16.47-8.87,28.71-25.12,31.69-45.05
			C866.58,546.64,843.44,515.36,809.87,510.34z M802.22,595.86c-15.34,0-27.78-12.44-27.78-27.78s12.44-27.78,27.78-27.78
			s27.78,12.44,27.78,27.78S817.56,595.86,802.22,595.86z"/>
	</g>
	
		<linearGradient id="SVGID_00000140712239628810616540000016545678504246215060_" gradientUnits="userSpaceOnUse" x1="451.6046" y1="536.4791" x2="633.6738" y2="536.4791">
		<stop  offset="0" style="stop-color:#B537E3"/>
		<stop  offset="0.1962" style="stop-color:#9D45DE"/>
		<stop  offset="0.6079" style="stop-color:#6067D2"/>
		<stop  offset="1" style="stop-color:#208BC6"/>
	</linearGradient>
	
		<circle style="fill-rule:evenodd;clip-rule:evenodd;fill:url(#SVGID_00000140712239628810616540000016545678504246215060_);" cx="542.64" cy="536.48" r="91.03"/>
</g>
</svg>
