<svg width="14" height="18" viewBox="0 0 14 18" fill="none" xmlns="http://www.w3.org/2000/svg">
<path fill-rule="evenodd" clip-rule="evenodd" d="M13 1H1V17H13V1ZM1 0C0.447715 0 0 0.447716 0 1V17C0 17.5523 0.447716 18 1 18H13C13.5523 18 14 17.5523 14 17V1C14 0.447715 13.5523 0 13 0H1ZM4.5 14.75C4.5 15.1642 4.16421 15.5 3.75 15.5C3.33579 15.5 3 15.1642 3 14.75C3 14.3358 3.33579 14 3.75 14C4.16421 14 4.5 14.3358 4.5 14.75ZM3.75 12.5C4.16421 12.5 4.5 12.1642 4.5 11.75C4.5 11.3358 4.16421 11 3.75 11C3.33579 11 3 11.3358 3 11.75C3 12.1642 3.33579 12.5 3.75 12.5ZM4.5 8.75C4.5 9.16421 4.16421 9.5 3.75 9.5C3.33579 9.5 3 9.16421 3 8.75C3 8.33579 3.33579 8 3.75 8C4.16421 8 4.5 8.33579 4.5 8.75ZM6.75 8C6.33579 8 6 8.33579 6 8.75C6 9.16421 6.33579 9.5 6.75 9.5H10.25C10.6642 9.5 11 9.16421 11 8.75C11 8.33579 10.6642 8 10.25 8H6.75ZM6 11.75C6 11.3358 6.33579 11 6.75 11H10.25C10.6642 11 11 11.3358 11 11.75C11 12.1642 10.6642 12.5 10.25 12.5H6.75C6.33579 12.5 6 12.1642 6 11.75ZM6.75 14C6.33579 14 6 14.3358 6 14.75C6 15.1642 6.33579 15.5 6.75 15.5H10.25C10.6642 15.5 11 15.1642 11 14.75C11 14.3358 10.6642 14 10.25 14H6.75ZM2.61209 5.94203C2.43786 5.7278 2.47029 5.41288 2.68452 5.23865L4.67571 3.61925C4.69681 3.6013 4.71927 3.58523 4.7428 3.57115C4.86517 3.49791 5.01661 3.47833 5.15783 3.5255C5.18385 3.53413 5.20926 3.54493 5.23376 3.55786L6.90127 4.39162L8.6383 2.65459C8.71425 2.57501 8.81377 2.52373 8.9199 2.50642C8.99158 2.49473 9.06627 2.49852 9.13875 2.51955C9.17143 2.52895 9.20333 2.54175 9.23391 2.55794L11.2236 3.55279C11.4706 3.67628 11.5707 3.97662 11.4472 4.22361C11.3237 4.4706 11.0234 4.57071 10.7764 4.44721L9.09873 3.60838L7.36171 5.3454C7.33755 5.37072 7.311 5.39317 7.28262 5.41257C7.22074 5.45506 7.15143 5.48207 7.0801 5.49358C7.00879 5.50521 6.93449 5.50152 6.86235 5.48077C6.82928 5.47134 6.797 5.45843 6.76608 5.44206L5.06508 4.59156L3.31548 6.01447C3.10124 6.1887 2.78632 6.15627 2.61209 5.94203Z" fill="#7774AA"/>
</svg>
