<svg width="20" height="22" viewBox="0 0 20 22" fill="none" xmlns="http://www.w3.org/2000/svg">
<path fill-rule="evenodd" clip-rule="evenodd" d="M12.1176 1L7.23529 0.999999V2.3L12.1176 2.3V1ZM7.23529 0C6.68301 0 6.23529 0.447714 6.23529 0.999999V2.3C6.23529 2.3452 6.23829 2.3897 6.2441 2.43331H4.78638H3.97136H3.15635H1.93382C1.76717 2.43331 1.61955 2.51485 1.5287 2.64021L1.51308 2.63325L0.146849 5.51268C0.0561303 5.60319 0 5.72836 0 5.86664C0 6.14278 0.223858 6.36664 0.5 6.36664H1.76755L1.7861 6.5L3.7014 20.2754C3.83885 21.2641 4.68419 22 5.68234 22H14.183C15.2073 22 16.066 21.2262 16.1722 20.2074L17.6016 6.5L17.6155 6.36664H18.8529C19.1291 6.36664 19.3529 6.14278 19.3529 5.86664C19.3529 5.70433 19.2756 5.56009 19.1558 5.46875L17.9115 2.84584C17.8701 2.6114 17.6654 2.43331 17.4191 2.43331H16.1966H14.1591H13.1088C13.1146 2.3897 13.1176 2.3452 13.1176 2.3V1C13.1176 0.447715 12.6699 0 12.1176 0H7.23529ZM17.1074 3.43331H16.1966H14.1591H4.78638H3.97136H3.15635H2.21635L1.29902 5.36664H1.94892H2.91486H3.88081H14.9892H17.404H18.0245L17.1074 3.43331ZM2.79572 6.5L4.69187 20.1377C4.7606 20.632 5.18327 21 5.68234 21H14.183C14.6951 21 15.1245 20.6131 15.1776 20.1037L16.5962 6.5H2.79572ZM5.43355 8.2621C5.42203 7.94557 5.6693 7.68038 5.98586 7.66978C6.30242 7.65918 6.56839 7.90718 6.57991 8.22371L6.97852 19.1701C6.99005 19.4866 6.74277 19.7518 6.42621 19.7624C6.10965 19.773 5.84369 19.525 5.83216 19.2085L5.43355 8.2621ZM9.8862 7.69999C9.56945 7.69999 9.31267 7.95677 9.31267 8.27352V19.2265C9.31267 19.5432 9.56945 19.8 9.8862 19.8C10.203 19.8 10.4597 19.5432 10.4597 19.2265V8.27352C10.4597 7.95677 10.203 7.69999 9.8862 7.69999ZM13.7858 7.70367C13.4693 7.69307 13.2033 7.94107 13.1918 8.2576L12.7932 19.204C12.7817 19.5205 13.0289 19.7857 13.3455 19.7963C13.6621 19.8069 13.928 19.5589 13.9395 19.2424L14.3382 8.29599C14.3497 7.97946 14.1024 7.71427 13.7858 7.70367Z" fill="white"/>
</svg>
