<svg width="22" height="22" viewBox="0 0 22 22" fill="none" xmlns="http://www.w3.org/2000/svg">
<path fill-rule="evenodd" clip-rule="evenodd" d="M14.9351 3.57931L15.4647 3.04803C16.2445 2.26576 17.5108 2.26377 18.2931 3.04359L18.9509 3.69931C19.7332 4.47913 19.7351 5.74546 18.9553 6.52773L18.4257 7.05901L14.9351 3.57931ZM13.5208 3.58153L14.2268 2.87331L14.7565 2.34204C15.9262 1.16862 17.8257 1.16564 18.9991 2.33537L19.6569 2.99109C20.8303 4.16082 20.8333 6.06032 19.6635 7.23373L19.1339 7.76501L19.031 7.86821L19.046 7.88376L12.7776 14.1728C12.7423 14.2083 12.7005 14.2328 12.6562 14.2466C12.6225 14.3238 12.5566 14.3878 12.4649 14.4146L7.26461 15.9372L7.26327 15.9376L7.17885 15.9623L6.65385 16.116C6.43561 16.1799 6.22976 15.9869 6.27875 15.7643L6.3955 15.2337L6.41495 15.1453L6.41526 15.1439L7.64687 9.54719C7.67102 9.43744 7.7477 9.36065 7.83949 9.32778C7.84753 9.291 7.86571 9.25608 7.89399 9.22771L13.5212 3.58191L13.5208 3.58153ZM17.6473 7.87047L12.4745 13.0603L8.97446 9.56022L14.2194 4.29799L17.6473 7.87047ZM8.46814 10.4681L11.62 13.62L7.5097 14.8235L8.46814 10.4681ZM2 4C2 3.17157 2.67157 2.5 3.5 2.5H5H6H6.75H7.5C7.77614 2.5 8 2.27614 8 2C8 1.72386 7.77614 1.5 7.5 1.5H6.75H6H5H3.5C2.11929 1.5 1 2.61929 1 4V18.5C1 19.8807 2.11929 21 3.5 21H18C19.3807 21 20.5 19.8807 20.5 18.5V17.5V17V16V14.5C20.5 14.2239 20.2761 14 20 14C19.7239 14 19.5 14.2239 19.5 14.5V16V17V17.5V18.5C19.5 19.3284 18.8284 20 18 20H3.5C2.67157 20 2 19.3284 2 18.5V4Z" fill="black"/>
</svg>
