<svg width="22" height="15" viewBox="0 0 22 15" fill="none" xmlns="http://www.w3.org/2000/svg">
<g filter="url(#filter0_d_20_4)">
<path d="M10.661 11.3533C10.8563 11.5486 11.1729 11.5486 11.3681 11.3533L14.5501 8.17136C14.7454 7.9761 14.7454 7.65952 14.5501 7.46425C14.3549 7.26899 14.0383 7.26899 13.843 7.46425L11.0146 10.2927L8.18616 7.46425C7.9909 7.26899 7.67432 7.26899 7.47905 7.46425C7.28379 7.65952 7.28379 7.9761 7.47905 8.17136L10.661 11.3533ZM10.5146 9.99979V10.2498H11.5146V9.99979H10.5146ZM10.5146 10.7498V10.9998H11.5146V10.7498H10.5146ZM10.3075 11.7069C10.698 12.0974 11.3312 12.0974 11.7217 11.7069L18.0857 5.34293C18.4762 4.95241 18.4762 4.31924 18.0857 3.92872C17.6951 3.5382 17.062 3.5382 16.6714 3.92872L11.0146 9.58557L5.35773 3.92872C4.96721 3.5382 4.33404 3.5382 3.94352 3.92872C3.553 4.31924 3.553 4.95241 3.94352 5.34293L10.3075 11.7069ZM10.0146 9.99979V10.2498H12.0146V9.99979H10.0146ZM10.0146 10.7498V10.9998H12.0146V10.7498H10.0146Z" fill="#DC143C"/>
</g>
<defs>
<filter id="filter0_d_20_4" x="0.650627" y="0.635834" width="20.7279" height="14.364" filterUnits="userSpaceOnUse" color-interpolation-filters="sRGB">
<feFlood flood-opacity="0" result="BackgroundImageFix"/>
<feColorMatrix in="SourceAlpha" type="matrix" values="0 0 0 0 0 0 0 0 0 0 0 0 0 0 0 0 0 0 127 0" result="hardAlpha"/>
<feOffset/>
<feGaussianBlur stdDeviation="1.5"/>
<feComposite in2="hardAlpha" operator="out"/>
<feColorMatrix type="matrix" values="0 0 0 0 0.862745 0 0 0 0 0.0784314 0 0 0 0 0.235294 0 0 0 0.4 0"/>
<feBlend mode="normal" in2="BackgroundImageFix" result="effect1_dropShadow_20_4"/>
<feBlend mode="normal" in="SourceGraphic" in2="effect1_dropShadow_20_4" result="shape"/>
</filter>
</defs>
</svg>
