<svg width="20" height="20" viewBox="0 0 20 20" fill="none" xmlns="http://www.w3.org/2000/svg">
<path fill-rule="evenodd" clip-rule="evenodd" d="M20 10.0125C19.9932 15.5296 15.5187 20 10 20C4.47715 20 0 15.5228 0 10C0 4.47715 4.47715 0 10 0C15.52 0 19.9954 4.47256 20 9.99149C19.9992 9.04591 19.8643 8.10004 19.5949 7.18274L16.7182 8.0274C15.8665 5.12184 13.181 3 10 3C6.13401 3 3 6.13401 3 10C3 13.866 6.13401 17 10 17C13.1256 17 15.7728 14.9514 16.6721 12.1237L19.5289 13.033C19.8416 12.0509 19.9987 11.032 20 10.0125Z" fill="#1CEA27"/>
</svg>
