<svg width="16" height="18" viewBox="0 0 16 18" fill="none" xmlns="http://www.w3.org/2000/svg">
<path fill-rule="evenodd" clip-rule="evenodd" d="M3 0.75C1.48122 0.75 0.25 1.98122 0.25 3.5V15C0.25 16.5188 1.48122 17.75 3 17.75H10V16.25H3C2.30964 16.25 1.75 15.6904 1.75 15V3.5C1.75 2.80964 2.30964 2.25 3 2.25H10V0.75H3ZM15.5303 8.46967L10.7574 3.6967C10.4645 3.40381 9.98959 3.40381 9.6967 3.6967C9.40381 3.98959 9.40381 4.46447 9.6967 4.75736L13.1893 8.25H5V9.75H13.1893L9.6967 13.2426C9.40381 13.5355 9.40381 14.0104 9.6967 14.3033C9.98959 14.5962 10.4645 14.5962 10.7574 14.3033L15.5303 9.53033C15.8232 9.23744 15.8232 8.76256 15.5303 8.46967Z" fill="black"/>
</svg>
