<svg width="22" height="22" viewBox="0 0 22 22" fill="none" xmlns="http://www.w3.org/2000/svg">
<path fill-rule="evenodd" clip-rule="evenodd" d="M10.6655 1.97372C10.8557 1.80258 11.1443 1.80258 11.3345 1.97372L18.0304 8H18V19C18 19.2761 17.7761 19.5 17.5 19.5H15C14.7239 19.5 14.5 19.2761 14.5 19V16.5V15C14.5 14.1716 13.8284 13.5 13 13.5H9C8.17157 13.5 7.5 14.1716 7.5 15V19C7.5 19.2761 7.27614 19.5 7 19.5H4.5C4.22386 19.5 4 19.2761 4 19V8H3.96964L10.6655 1.97372ZM3 8.87269L1.33448 10.3717L0.665516 9.62836L9.99655 1.23043C10.567 0.717015 11.433 0.717014 12.0034 1.23043L21.3345 9.62836L20.6655 10.3717L19 8.87269V19C19 19.8284 18.3284 20.5 17.5 20.5H15C14.1716 20.5 13.5 19.8284 13.5 19V16.5V15C13.5 14.7239 13.2761 14.5 13 14.5H9C8.72386 14.5 8.5 14.7239 8.5 15V19C8.5 19.8284 7.82843 20.5 7 20.5H4.5C3.67157 20.5 3 19.8284 3 19V8.87269Z" fill="#7774AA"/>
</svg>
