<svg width="22" height="21" viewBox="0 0 22 21" fill="none" xmlns="http://www.w3.org/2000/svg">
<path fill-rule="evenodd" clip-rule="evenodd" d="M9.61599 10.3398L10.5929 13.6029L11.3144 16.0126L11.6012 16.9706C11.2797 17.0668 10.9537 17.1424 10.6252 17.1973C9.39249 17.4033 8.12373 17.3183 6.92189 16.943C5.72005 16.5676 4.62843 15.9155 3.73203 15.0446C3.49312 14.8125 3.26808 14.5648 3.05852 14.3027L3.83954 13.6782L5.30472 12.5067L8.46447 9.98014L8.93222 9.60613L9.10548 9.46759L9.3067 9.3067L9.39213 9.59206L9.61599 10.3398ZM8.77375 11.0132L10.3358 16.2306C9.29645 16.3851 8.23116 16.3042 7.21999 15.9884C6.20883 15.6727 5.28683 15.1329 4.52012 14.4144L8.77375 11.0132ZM9.00001 8L6.0919 7.79265L2.01774 7.50215L1.10224 7.43687L1.02027 7.43103L1.02031 7.43048L1.02534 7.3639C1.05021 7.0521 1.09326 6.74298 1.15397 6.43802C1.36805 5.36271 1.80165 4.3392 2.43162 3.43314C3.25305 2.25169 4.37794 1.31367 5.68776 0.717903C6.99758 0.122133 8.44384 -0.109328 9.87417 0.0479071C10.9711 0.168491 12.0275 0.514262 12.9787 1.05955C13.2678 1.22529 13.5472 1.40945 13.8151 1.61133L13.2132 2.40991L9.00001 8ZM3.25266 4.004C2.72561 4.76205 2.35564 5.61404 2.16047 6.50979L8.52872 6.96386L12.3714 1.86536C11.568 1.42383 10.6826 1.1428 9.7649 1.04192C8.51336 0.904339 7.24788 1.10687 6.10179 1.62817C4.95569 2.14946 3.97142 2.97023 3.25266 4.004ZM1.78391 12.5609C1.32043 11.5663 1.05611 10.4792 1.008 9.36958C0.994531 9.05881 0.998018 8.74625 1.01884 8.43346L1.0235 8.36732L2.02 8.45164L6.01418 8.78965L6.96032 8.86971L8.12832 8.96855L8.50001 9L7.24191 9.89711L4.70172 11.7085L3.08078 12.8643L2.26492 13.4461C2.08626 13.161 1.92576 12.8652 1.78391 12.5609ZM2.61398 11.969C2.27062 11.1798 2.06648 10.3271 2.01372 9.45469L5.70223 9.76682L2.61398 11.969ZM10 9L10.185 8.75359L10.6187 8.17572L14.2021 3.40154L14.8024 2.60176C15.0706 2.80311 15.325 3.02045 15.5645 3.25223C16.3556 4.0181 16.9827 4.94169 17.4029 5.96723C17.9502 7.30315 18.1258 8.76227 17.911 10.1899C17.8191 10.8009 17.6572 11.3963 17.4302 11.9651L16.5322 11.5161C16.7147 11.0422 16.8459 10.5478 16.9221 10.0412C17.11 8.79199 16.9564 7.51526 16.4775 6.34633C16.1259 5.48815 15.6087 4.71157 14.9587 4.05925L11.1235 9.16899L12.96 14.2747C12.7535 14.3435 12.5546 14.4188 12.3595 14.4927C12.2456 14.5358 12.1331 14.5784 12.0211 14.6189L11.5431 13.29L10.0454 9.12622L10.0322 9.08949L10 9ZM15.6814 14.6322C15.6857 14.6278 15.6901 14.6235 15.6944 14.6191C15.6919 14.6216 15.6895 14.6241 15.687 14.6265C15.6852 14.6284 15.6833 14.6303 15.6814 14.6322Z" fill="#7774AA"/>
<path fill-rule="evenodd" clip-rule="evenodd" d="M16.2354 16.8901C16.0029 16.9615 15.756 17 15.5 17C14.1193 17 13 15.8807 13 14.5C13 13.1193 14.1193 12 15.5 12C16.8807 12 18 13.1193 18 14.5C18 14.8662 17.9212 15.2141 17.7797 15.5275L17.6692 15.6251L16.2354 16.8901ZM15.9095 17.9763C15.7751 17.992 15.6385 18 15.5 18C13.567 18 12 16.433 12 14.5C12 12.567 13.567 11 15.5 11C17.433 11 19 12.567 19 14.5C19 15.0358 18.8796 15.5434 18.6644 15.9973L20.1407 17.6706C20.6888 18.2918 20.6295 19.2397 20.0083 19.7878L19.727 20.036C19.1058 20.584 18.1579 20.5248 17.6099 19.9036L15.9095 17.9763ZM16.9765 17.6742L18.3597 19.242C18.5424 19.449 18.8584 19.4688 19.0655 19.2861L19.3467 19.0379C19.5538 18.8552 19.5736 18.5392 19.3909 18.3322L18.0884 16.8559C17.7775 17.1973 17.4001 17.4769 16.9765 17.6742Z" fill="#7774AA"/>
</svg>
