<svg width="19" height="7" viewBox="0 0 19 7" fill="none" xmlns="http://www.w3.org/2000/svg">
<path d="M4.11001 0.942C4.11001 0.768 4.14901 0.618 4.22701 0.492C4.31101 0.36 4.43401 0.294 4.59601 0.294C4.73401 0.294 4.85701 0.321 4.96501 0.375C5.07301 0.429 5.12701 0.519 5.12701 0.645C5.12701 0.891 5.11501 1.236 5.09101 1.68C5.06701 2.112 5.05501 2.433 5.05501 2.643C5.05501 2.973 5.06701 3.414 5.09101 3.966C5.11501 4.494 5.12701 4.881 5.12701 5.127C5.12701 5.325 5.12401 5.472 5.11801 5.568C5.11801 5.664 5.06401 5.76 4.95601 5.856C4.85401 5.946 4.69501 5.991 4.47901 5.991C4.36501 5.991 4.26601 5.973 4.18201 5.937C4.10401 5.895 4.05001 5.85 4.02001 5.802C3.73801 5.46 3.32701 4.878 2.78701 4.056C2.18101 3.138 1.68601 2.436 1.30201 1.95C1.35001 2.382 1.37401 2.91 1.37401 3.534C1.37401 3.81 1.36801 4.17 1.35601 4.614C1.35001 5.052 1.33801 5.34 1.32001 5.478C1.29601 5.652 1.24201 5.787 1.15801 5.883C1.08001 5.973 0.954012 6.018 0.780012 6.018C0.648012 6.018 0.549012 5.982 0.483012 5.91C0.423012 5.832 0.387012 5.7 0.375012 5.514C0.369012 5.268 0.384012 4.899 0.420012 4.407C0.426012 4.329 0.435012 4.194 0.447012 4.002C0.459012 3.81 0.465012 3.639 0.465012 3.489C0.465012 3.075 0.444012 2.601 0.402012 2.067C0.366012 1.479 0.348012 1.044 0.348012 0.762C0.348012 0.618 0.399012 0.507 0.501012 0.429C0.609012 0.351 0.732012 0.312 0.870012 0.312C0.990012 0.312 1.11601 0.342 1.24801 0.402C1.76401 1.05 2.46301 2.016 3.34501 3.3L4.19101 4.596C4.19701 4.5 4.20001 4.365 4.20001 4.191C4.20001 3.885 4.19401 3.555 4.18201 3.201C4.17001 2.847 4.16101 2.607 4.15501 2.481C4.12501 1.899 4.11001 1.386 4.11001 0.942ZM10.1113 4.776C10.2253 4.776 10.3093 4.821 10.3633 4.911C10.4233 4.995 10.4533 5.088 10.4533 5.19C10.4533 5.316 10.4323 5.406 10.3903 5.46C10.3543 5.508 10.2823 5.559 10.1743 5.613C9.92225 5.733 9.61025 5.829 9.23825 5.901C8.86625 5.973 8.46725 6.009 8.04125 6.009C7.50725 6.009 7.11425 5.919 6.86225 5.739C6.61625 5.559 6.46325 5.343 6.40325 5.091C6.34925 4.833 6.32225 4.497 6.32225 4.083C6.32225 3.639 6.34025 3.204 6.37625 2.778C6.41225 2.346 6.47525 1.797 6.56525 1.131C6.60725 0.843 6.72125 0.636 6.90725 0.51C7.09325 0.378 7.29725 0.312 7.51925 0.312C7.70525 0.312 8.00825 0.306 8.42825 0.294L9.21125 0.285C9.53525 0.285 9.76925 0.294 9.91325 0.312C10.0933 0.348 10.2253 0.39 10.3093 0.438C10.3993 0.48 10.4443 0.555 10.4443 0.663C10.4443 0.783 10.4023 0.9 10.3183 1.014C10.2403 1.128 10.1203 1.185 9.95825 1.185C9.77225 1.185 9.50525 1.173 9.15725 1.149C8.80925 1.125 8.54825 1.113 8.37425 1.113C8.22425 1.113 8.07725 1.122 7.93325 1.14C7.76525 1.152 7.64525 1.173 7.57325 1.203C7.50125 1.233 7.45925 1.284 7.44725 1.356C7.36325 1.974 7.32125 2.43 7.32125 2.724C7.45925 2.742 7.59425 2.751 7.72625 2.751C7.89425 2.751 8.07425 2.742 8.26625 2.724C8.45825 2.706 8.58125 2.694 8.63525 2.688C8.95325 2.658 9.22625 2.643 9.45425 2.643C9.58625 2.643 9.68525 2.667 9.75125 2.715C9.82325 2.763 9.85925 2.829 9.85925 2.913C9.85925 3.045 9.82325 3.147 9.75125 3.219C9.68525 3.291 9.56525 3.345 9.39125 3.381C9.18125 3.423 8.92025 3.456 8.60825 3.48C8.30225 3.504 8.00225 3.516 7.70825 3.516C7.60625 3.516 7.46525 3.51 7.28525 3.498C7.26725 3.864 7.25825 4.203 7.25825 4.515C7.25825 4.941 7.54025 5.154 8.10425 5.154C8.40425 5.154 8.65325 5.133 8.85125 5.091C9.04925 5.049 9.27725 4.989 9.53525 4.911C9.77525 4.821 9.96725 4.776 10.1113 4.776ZM17.2551 0.798C17.2911 0.672 17.3451 0.57 17.4171 0.492C17.4891 0.408 17.5671 0.366 17.6511 0.366C17.8551 0.366 18.0021 0.405 18.0921 0.483C18.1821 0.561 18.2271 0.696 18.2271 0.888C18.2271 0.942 18.1851 1.095 18.1011 1.347C17.9151 1.917 17.7111 2.622 17.4891 3.462C17.4351 3.654 17.3901 3.822 17.3541 3.966C17.3241 4.11 17.2971 4.23 17.2731 4.326C17.1291 4.944 17.0031 5.409 16.8951 5.721C16.8591 5.811 16.7961 5.883 16.7061 5.937C16.6161 5.985 16.5201 6.009 16.4181 6.009C16.3161 6.009 16.2141 5.988 16.1121 5.946C16.0161 5.898 15.9471 5.844 15.9051 5.784C15.7251 5.43 15.4971 4.875 15.2211 4.119C14.9451 3.357 14.7321 2.637 14.5821 1.959C14.4441 2.607 14.2941 3.189 14.1321 3.705C13.9761 4.221 13.7961 4.764 13.5921 5.334C13.5681 5.406 13.5441 5.475 13.5201 5.541C13.4961 5.601 13.4751 5.661 13.4571 5.721C13.4151 5.811 13.3551 5.883 13.2771 5.937C13.1991 5.985 13.1121 6.009 13.0161 6.009C12.9081 6.009 12.8031 5.988 12.7011 5.946C12.5991 5.898 12.5301 5.844 12.4941 5.784C12.4161 5.652 12.3321 5.448 12.2421 5.172C12.1581 4.896 12.0441 4.509 11.9001 4.011L11.6751 3.246C11.5191 2.748 11.3841 2.238 11.2701 1.716C11.1561 1.194 11.0991 0.882 11.0991 0.78C11.0991 0.654 11.1621 0.555 11.2881 0.483C11.4141 0.405 11.5401 0.366 11.6661 0.366C11.7381 0.366 11.8131 0.39 11.8911 0.438C11.9691 0.48 12.0201 0.555 12.0441 0.663C12.2541 1.785 12.5631 3.087 12.9711 4.569C13.0731 4.335 13.1691 4.059 13.2591 3.741C13.3551 3.417 13.4841 2.964 13.6461 2.382C13.8561 1.62 14.0151 1.077 14.1231 0.753C14.1471 0.663 14.2071 0.591 14.3031 0.537C14.4051 0.483 14.5071 0.455999 14.6091 0.455999C14.7411 0.455999 14.8491 0.492 14.9331 0.564C15.0171 0.63 15.0711 0.702 15.0951 0.78L15.1671 1.059C15.3531 1.761 15.5391 2.418 15.7251 3.03C15.9111 3.642 16.1001 4.155 16.2921 4.569C16.4121 4.215 16.5561 3.648 16.7241 2.868L16.8591 2.274C17.0211 1.638 17.1531 1.146 17.2551 0.798Z" fill="white"/>
</svg>
