<svg width="22" height="21" viewBox="0 0 22 21" fill="none" xmlns="http://www.w3.org/2000/svg">
<path fill-rule="evenodd" clip-rule="evenodd" d="M7.5 3.5C7.5 3.22386 7.72386 3 8 3H14C14.2761 3 14.5 3.22386 14.5 3.5V4.5H7.5V3.5ZM6.5 4.5V3.5C6.5 2.67157 7.17157 2 8 2H14C14.8284 2 15.5 2.67157 15.5 3.5V4.5H19C20.1046 4.5 21 5.39543 21 6.5V9.5V17.5C21 18.6046 20.1046 19.5 19 19.5H3C1.89543 19.5 1 18.6046 1 17.5V9.5V6.5C1 5.39543 1.89543 4.5 3 4.5H6.5ZM6.5 5.5H3C2.44772 5.5 2 5.94772 2 6.5V9.5C2 10.0523 2.44772 10.5 3 10.5H9V10C9 9.44772 9.44771 9 10 9H12C12.5523 9 13 9.44772 13 10V10.5H19C19.5523 10.5 20 10.0523 20 9.5V6.5C20 5.94772 19.5523 5.5 19 5.5H7.5H6.5ZM13 11.5V12C13 12.5523 12.5523 13 12 13H10C9.44771 13 9 12.5523 9 12V11.5H3C2.63571 11.5 2.29417 11.4026 2 11.2324V17.5C2 18.0523 2.44772 18.5 3 18.5H19C19.5523 18.5 20 18.0523 20 17.5V11.2324C19.7058 11.4026 19.3643 11.5 19 11.5H13ZM10 10H12V12H10V10Z" fill="#7774AA"/>
</svg>
