<svg width="20" height="20" viewBox="0 0 20 20" fill="none" xmlns="http://www.w3.org/2000/svg">
<g clip-path="url(#clip0_51_38)">
<path fill-rule="evenodd" clip-rule="evenodd" d="M14.9596 2.05971C15.3577 1.74855 15.9253 1.7832 16.2826 2.14046L17.8785 3.73632C18.2276 4.0854 18.2697 4.637 17.9776 5.03502L16.5539 6.97522C16.4629 7.09923 16.446 7.26161 16.503 7.40445C16.5648 7.55899 16.705 7.6705 16.8706 7.68706L19.0995 7.90995C19.6107 7.96107 20 8.39124 20 8.90499V11.095C20 11.6088 19.6107 12.0389 19.0995 12.09L16.995 12.3005C16.7534 12.3247 16.5495 12.488 16.4554 12.7118C16.3582 12.9429 16.3901 13.2103 16.5532 13.4007L17.8832 14.9538C18.223 15.3506 18.2001 15.942 17.8308 16.3114L16.2698 17.8723C15.918 18.2241 15.3612 18.2638 14.9631 17.9656L13.0771 16.5526C12.9436 16.4526 12.7673 16.4339 12.6127 16.4962C12.4479 16.5625 12.3288 16.7121 12.3111 16.8888L12.09 19.0995C12.0389 19.6107 11.6088 20 11.095 20H8.90499C8.39124 20 7.96107 19.6107 7.90995 19.0995L7.68705 16.8706C7.6705 16.705 7.55899 16.5648 7.40445 16.503C7.26161 16.446 7.09922 16.4629 6.97521 16.5539L5.03504 17.9776C4.63702 18.2696 4.08542 18.2275 3.73634 17.8785L2.1457 16.2878C1.78621 15.9283 1.75366 15.3563 2.07006 14.9584L3.44907 13.2239C3.57604 13.0642 3.60026 12.8477 3.52272 12.6591C3.44363 12.4666 3.26858 12.3269 3.06154 12.3062L0.900497 12.09C0.389295 12.0389 0 11.6088 0 11.095V8.90499C0 8.39124 0.389295 7.96107 0.900496 7.90995L3.15122 7.68488C3.30352 7.66965 3.43254 7.56716 3.48887 7.42484C3.54 7.29568 3.52497 7.14923 3.44407 7.0363L2.00876 5.03276C1.72377 4.63494 1.76855 4.08932 2.11458 3.74329L3.69628 2.16159C4.06247 1.7954 4.64765 1.76936 5.04491 2.10159L6.65493 3.44806C6.83581 3.59933 7.08688 3.6287 7.30447 3.53783C7.51861 3.4484 7.67466 3.25336 7.69775 3.02245L7.90995 0.900497C7.96107 0.389295 8.39124 0 8.90499 0H11.095C11.6088 0 12.0389 0.389295 12.09 0.900496L12.3075 3.0753C12.3274 3.27394 12.4614 3.44194 12.6462 3.51745C12.8252 3.59059 13.0301 3.56799 13.1825 3.44891L14.9596 2.05971ZM8.69279 3.12195L8.90499 1L11.095 1L11.3125 3.1748C11.3719 3.769 11.7666 4.23828 12.2679 4.44315C12.7567 4.64289 13.3449 4.59124 13.7983 4.23676L15.5755 2.84757L17.1714 4.44343L15.7477 6.38362C15.4417 6.80071 15.3963 7.32957 15.5744 7.77543C15.7658 8.25455 16.2115 8.62614 16.771 8.68209L19 8.90499V11.095L16.8955 11.3055C16.2563 11.3694 15.7565 11.7941 15.5336 12.3241C15.3021 12.8744 15.3642 13.5497 15.7936 14.0512L17.1237 15.6043L15.5627 17.1652L13.6766 15.7523C13.2473 15.4307 12.6992 15.3833 12.2392 15.5685C11.7526 15.7644 11.3732 16.2181 11.3161 16.7893L11.095 19L8.90499 19L8.68209 16.771C8.62614 16.2115 8.25455 15.7658 7.77543 15.5744C7.32957 15.3963 6.8007 15.4417 6.38362 15.7477L4.44344 17.1714L2.85281 15.5807L4.23182 13.8463C4.5998 13.3834 4.65326 12.7792 4.44766 12.2789C4.23931 11.772 3.76406 11.3714 3.16105 11.3111L1 11.095L1 8.90499L3.25072 8.67992C3.79627 8.62536 4.2326 8.26301 4.41868 7.79289C4.58872 7.36333 4.5455 6.85665 4.257 6.45394L2.82169 4.45039L4.40338 2.86869L6.0134 4.21516C6.50298 4.62459 7.15539 4.68378 7.68983 4.4606C8.2127 4.24224 8.62999 3.74999 8.69279 3.12195ZM10 15C12.7614 15 15 12.7614 15 10C15 7.23858 12.7614 5 10 5C7.23858 5 5 7.23858 5 10C5 12.7614 7.23858 15 10 15ZM10 14C12.2091 14 14 12.2091 14 10C14 7.79086 12.2091 6 10 6C7.79086 6 6 7.79086 6 10C6 12.2091 7.79086 14 10 14ZM9.79996 7.5242C9.50273 7.5242 9.24588 7.69711 9.12451 7.94783H10.9257C10.8531 7.70289 10.6264 7.5242 10.3579 7.5242H9.79996ZM9.79996 7.0242C9.22252 7.0242 8.73653 7.41575 8.593 7.94783H8.17884C7.52779 7.94783 7 8.47561 7 9.12667C7 9.25053 7.0191 9.36992 7.05452 9.48207C7.01887 9.63152 7 9.78747 7 9.94783V11C7 12.1046 7.89543 13 9 13H11C12.1046 13 13 12.1046 13 11V9.94783C13 9.78747 12.9811 9.63152 12.9455 9.48207C12.9809 9.36992 13 9.25053 13 9.12667C13 8.47561 12.4722 7.94783 11.8212 7.94783H11.4371C11.3561 7.42467 10.9038 7.0242 10.3579 7.0242H9.79996ZM7.5835 9.45311C7.78792 8.86776 8.34492 8.44783 9 8.44783H11C11.6551 8.44783 12.2121 8.86776 12.4165 9.45311C12.3011 9.66315 12.0777 9.80551 11.8212 9.80551H10.5419C10.4454 9.60325 10.239 9.46348 10 9.46348C9.76098 9.46348 9.5546 9.60325 9.45813 9.80551H8.17884C7.92225 9.80551 7.69891 9.66315 7.5835 9.45311ZM10.1 10.0635C10.1 10.0194 10.0714 9.98193 10.0318 9.96864H9.9682C9.92856 9.98193 9.9 10.0194 9.9 10.0635V10.2107C9.9 10.2547 9.9284 10.2921 9.96787 10.3055H10.0321C10.0716 10.2921 10.1 10.2547 10.1 10.2107V10.0635ZM9.4 9.96864H9.40745C9.40255 9.99953 9.4 10.0312 9.4 10.0635V9.96864ZM9.4 10.3055V10.2107C9.4 10.243 9.40254 10.2746 9.40744 10.3055H9.4ZM8.17884 10.3055H9.40744C9.45288 10.5918 9.70088 10.8107 10 10.8107C10.2991 10.8107 10.5471 10.5918 10.5926 10.3055H11.8212C12.0739 10.3055 12.3081 10.226 12.5 10.0906V11C12.5 11.8284 11.8284 12.5 11 12.5H9C8.17157 12.5 7.5 11.8284 7.5 11V10.0906C7.69192 10.226 7.92609 10.3055 8.17884 10.3055ZM10 10.3107C9.98882 10.3107 9.97807 10.3089 9.96803 10.3055H10.032C10.0219 10.3089 10.0112 10.3107 10 10.3107ZM10.6 10.3055H10.5926C10.5975 10.2746 10.6 10.243 10.6 10.2107V10.3055ZM10.5925 9.96864C10.5975 9.99953 10.6 10.0312 10.6 10.0635V9.96864H10.5925Z" fill="black"/>
</g>
<defs>
<clipPath id="clip0_51_38">
<rect width="20" height="20" fill="white"/>
</clipPath>
</defs>
</svg>
