<svg width="19" height="21" viewBox="0 0 19 21" fill="none" xmlns="http://www.w3.org/2000/svg">
<path fill-rule="evenodd" clip-rule="evenodd" d="M0.869682 1.49999H1V18C1 18.8284 1.67157 19.5 2.5 19.5H17V19.8613C17 20.0326 17.2014 20.1246 17.3309 20.0124L18.3254 19.1512C18.4175 19.0714 18.4175 18.9286 18.3254 18.8488L17.3309 17.9876C17.2014 17.8754 17 17.9674 17 18.1387V18.5H2.5C2.22386 18.5 2 18.2761 2 18V1.49999H2.13032H2.36126C2.53261 1.49999 2.62462 1.29859 2.51244 1.16906L2.36126 0.994489L2.00396 0.581915L1.93301 0.499994L1.65119 0.174569C1.57143 0.0824762 1.42857 0.0824761 1.34881 0.174569L1.06699 0.499994L0.996042 0.581915L0.638742 0.994489L0.487556 1.16906C0.375381 1.29859 0.467392 1.49999 0.638742 1.49999H0.869682ZM4.2 11.8C3.97909 11.8 3.8 11.9791 3.8 12.2V15.8C3.8 16.0209 3.97909 16.2 4.2 16.2H4.8C5.02091 16.2 5.2 16.0209 5.2 15.8V12.2C5.2 11.9791 5.02091 11.8 4.8 11.8H4.2ZM4.2 12.2H4.8V15.8H4.2V12.2ZM5.8 9.19999C5.8 8.97908 5.97909 8.79999 6.2 8.79999H6.8C7.02091 8.79999 7.2 8.97908 7.2 9.19999V13.8C7.2 14.0209 7.02091 14.2 6.8 14.2H6.2C5.97909 14.2 5.8 14.0209 5.8 13.8V9.19999ZM6.8 9.19999H6.2V13.8H6.8V9.19999ZM8.2 10.8C7.97909 10.8 7.8 10.9791 7.8 11.2V16.8C7.8 17.0209 7.97909 17.2 8.2 17.2H8.8C9.02091 17.2 9.2 17.0209 9.2 16.8V11.2C9.2 10.9791 9.02091 10.8 8.8 10.8H8.2ZM8.2 11.2H8.8V16.8H8.2V11.2ZM9.8 10.2C9.8 9.97908 9.97909 9.79999 10.2 9.79999H10.8C11.0209 9.79999 11.2 9.97908 11.2 10.2V14.8C11.2 15.0209 11.0209 15.2 10.8 15.2H10.2C9.97909 15.2 9.8 15.0209 9.8 14.8V10.2ZM10.8 10.2H10.2V14.8H10.8V10.2ZM12.2 4.79999C11.9791 4.79999 11.8 4.97908 11.8 5.19999V10.8C11.8 11.0209 11.9791 11.2 12.2 11.2H12.8C13.0209 11.2 13.2 11.0209 13.2 10.8V5.19999C13.2 4.97908 13.0209 4.79999 12.8 4.79999H12.2ZM12.2 5.19999H12.8V10.8H12.2V5.19999ZM13.8 6.19999C13.8 5.97908 13.9791 5.79999 14.2 5.79999H14.8C15.0209 5.79999 15.2 5.97908 15.2 6.19999V7.79999C15.2 8.02091 15.0209 8.19999 14.8 8.19999H14.2C13.9791 8.19999 13.8 8.02091 13.8 7.79999V6.19999ZM14.8 6.19999H14.2V7.79999H14.8V6.19999ZM16.2 0.799994C15.9791 0.799994 15.8 0.97908 15.8 1.19999V6.79999C15.8 7.02091 15.9791 7.19999 16.2 7.19999H16.8C17.0209 7.19999 17.2 7.02091 17.2 6.79999V1.19999C17.2 0.97908 17.0209 0.799994 16.8 0.799994H16.2ZM16.2 1.19999L16.8 1.19999V6.79999H16.2V1.19999Z" fill="#7774AA"/>
</svg>
