<svg width="22" height="22" viewBox="0 0 22 22" fill="none" xmlns="http://www.w3.org/2000/svg">
<g clip-path="url(#clip0_41_22)">
<path d="M13.5771 12.4293C15.2365 12.4677 16.8443 11.8879 18.0483 10.8168C19.2523 9.74576 19.9541 8.27091 20 6.71557C19.9541 5.16022 19.2523 3.68538 18.0483 2.61432C16.8443 1.54327 15.2365 0.963387 13.5771 1.00179H7.04762C6.84555 1.00179 6.65176 1.07704 6.50887 1.21098C6.36599 1.34493 6.28571 1.52659 6.28571 1.71601V11.0009H4.7619C4.55984 11.0009 4.36604 11.0761 4.22316 11.2101C4.08027 11.344 4 11.5257 4 11.7151C4 11.9045 4.08027 12.0862 4.22316 12.2202C4.36604 12.3541 4.55984 12.4293 4.7619 12.4293H6.28571V13.8578H4.7619C4.55984 13.8578 4.36604 13.933 4.22316 14.067C4.08027 14.2009 4 14.3826 4 14.572C4 14.7614 4.08027 14.9431 4.22316 15.077C4.36604 15.211 4.55984 15.2862 4.7619 15.2862H6.28571V20.2858C6.28571 20.4752 6.36599 20.6569 6.50887 20.7908C6.65176 20.9248 6.84555 21 7.04762 21C7.24969 21 7.44348 20.9248 7.58637 20.7908C7.72925 20.6569 7.80952 20.4752 7.80952 20.2858V15.2862H14.6667C14.8687 15.2862 15.0625 15.211 15.2054 15.077C15.3483 14.9431 15.4286 14.7614 15.4286 14.572C15.4286 14.3826 15.3483 14.2009 15.2054 14.067C15.0625 13.933 14.8687 13.8578 14.6667 13.8578H7.80952V12.4293H13.5771ZM7.80952 2.43024H13.5771C14.8318 2.39356 16.0511 2.82353 16.9689 3.62635C17.8867 4.42917 18.4285 5.53967 18.4762 6.71557C18.4305 7.89211 17.8893 9.00372 16.971 9.80693C16.0528 10.6101 14.8324 11.0395 13.5771 11.0009H7.80952V2.43024Z" fill="black"/>
</g>
<defs>
<clipPath id="clip0_41_22">
<rect width="22" height="22" fill="white"/>
</clipPath>
</defs>
</svg>
