<svg width="22" height="22" viewBox="0 0 22 22" fill="none" xmlns="http://www.w3.org/2000/svg">
<path fill-rule="evenodd" clip-rule="evenodd" d="M10.4867 13.4621C9.72905 13.8075 8.887 14 8 14C4.68629 14 2 11.3137 2 8C2 4.68629 4.68629 2 8 2C11.3137 2 14 4.68629 14 8C14 9.3644 13.5446 10.6224 12.7775 11.6304C12.8191 11.6637 12.8587 11.7008 12.8956 11.7416L18.6679 18.1224C19.0384 18.532 19.0067 19.1644 18.5971 19.5349L17.8555 20.2057C17.446 20.5762 16.8136 20.5446 16.4431 20.135L10.6709 13.7542C10.5907 13.6656 10.5294 13.5666 10.4867 13.4621ZM12 8C12 10.2091 10.2091 12 8 12C5.79086 12 4 10.2091 4 8C4 5.79086 5.79086 4 8 4C10.2091 4 12 5.79086 12 8Z" fill="#7774AA"/>
</svg>
