<svg width="20" height="12" viewBox="0 0 20 12" fill="none" xmlns="http://www.w3.org/2000/svg">
<path fill-rule="evenodd" clip-rule="evenodd" d="M18 1H2C1.44772 1 1 1.44772 1 2V10C1 10.5523 1.44772 11 2 11H18C18.5523 11 19 10.5523 19 10V2C19 1.44772 18.5523 1 18 1ZM2 0C0.895431 0 0 0.895431 0 2V10C0 11.1046 0.895431 12 2 12H18C19.1046 12 20 11.1046 20 10V2C20 0.895431 19.1046 0 18 0H2ZM10 9C11.6569 9 13 7.65685 13 6C13 4.34315 11.6569 3 10 3C8.34315 3 7 4.34315 7 6C7 7.65685 8.34315 9 10 9ZM10 10C12.2091 10 14 8.20914 14 6C14 3.79086 12.2091 2 10 2C7.79086 2 6 3.79086 6 6C6 8.20914 7.79086 10 10 10ZM9.54999 5.7V4.5H10.45C10.7261 4.5 10.95 4.72386 10.95 5V5.2C10.95 5.47614 10.7261 5.7 10.45 5.7H9.54999ZM9.04999 5.70001H8.91667H8.75C8.61193 5.70001 8.5 5.81194 8.5 5.95001C8.5 6.08808 8.61193 6.20001 8.75 6.20001H8.91667H9.04999V6.70001H8.75C8.61193 6.70001 8.5 6.81194 8.5 6.95001C8.5 7.08808 8.61193 7.20001 8.75 7.20001H9.04999V7.75C9.04999 7.88807 9.16192 8 9.29999 8C9.43806 8 9.54999 7.88807 9.54999 7.75V7.20001H10.25C10.3881 7.20001 10.5 7.08808 10.5 6.95001C10.5 6.81194 10.3881 6.70001 10.25 6.70001H9.54999V6.2H10.45C11.0023 6.2 11.45 5.75229 11.45 5.2V5C11.45 4.44772 11.0023 4 10.45 4H9.34999C9.34118 4 9.33246 4.00038 9.32384 4.00112C9.31599 4.00038 9.30803 4 9.29999 4C9.16192 4 9.04999 4.11193 9.04999 4.25V4.3V5.7V5.70001Z" fill="white"/>
</svg>
