<svg width="20" height="20" viewBox="0 0 20 20" fill="none" xmlns="http://www.w3.org/2000/svg">
<mask id="path-1-inside-1_2_22" fill="white">
<path fill-rule="evenodd" clip-rule="evenodd" d="M8.90499 0C8.39124 0 7.96107 0.389295 7.90995 0.900497L7.69775 3.02245C7.67466 3.25336 7.51861 3.4484 7.30447 3.53783V3.53783C7.08688 3.6287 6.83581 3.59933 6.65493 3.44806L5.04491 2.10159C4.64765 1.76936 4.06247 1.7954 3.69628 2.16159L2.11458 3.74329C1.76855 4.08932 1.72377 4.63494 2.00876 5.03276L3.44407 7.0363C3.52497 7.14923 3.54 7.29568 3.48887 7.42484V7.42484C3.43254 7.56716 3.30352 7.66965 3.15122 7.68488L0.900496 7.90995C0.389295 7.96107 0 8.39124 0 8.90499V11.095C0 11.6088 0.389295 12.0389 0.900497 12.09L3.06154 12.3062C3.26858 12.3269 3.44363 12.4666 3.52272 12.6591V12.6591C3.60026 12.8477 3.57604 13.0642 3.44907 13.2239L2.07006 14.9584C1.75366 15.3563 1.78621 15.9283 2.1457 16.2878L3.73634 17.8785C4.08542 18.2275 4.63702 18.2696 5.03504 17.9776L6.97521 16.5539C7.09922 16.4629 7.26161 16.446 7.40445 16.503V16.503C7.55899 16.5648 7.6705 16.705 7.68705 16.8706L7.90995 19.0995C7.96107 19.6107 8.39124 20 8.90499 20H11.095C11.6088 20 12.0389 19.6107 12.09 19.0995L12.3111 16.8888C12.3288 16.7121 12.4479 16.5625 12.6127 16.4962V16.4962C12.7673 16.4339 12.9436 16.4526 13.0771 16.5526L14.9631 17.9656C15.3612 18.2638 15.918 18.2241 16.2698 17.8723L17.8308 16.3114C18.2001 15.942 18.223 15.3506 17.8832 14.9538L16.5532 13.4007C16.3901 13.2103 16.3582 12.9429 16.4554 12.7118V12.7118C16.5495 12.488 16.7534 12.3247 16.995 12.3005L19.0995 12.09C19.6107 12.0389 20 11.6088 20 11.095V8.90499C20 8.39124 19.6107 7.96107 19.0995 7.90995L16.8706 7.68706C16.705 7.6705 16.5648 7.55899 16.503 7.40445V7.40445C16.446 7.26161 16.4629 7.09923 16.5539 6.97522L17.9776 5.03502C18.2697 4.637 18.2276 4.0854 17.8785 3.73632L16.2826 2.14046C15.9253 1.7832 15.3577 1.74855 14.9596 2.05971L13.1825 3.44891C13.0301 3.56799 12.8252 3.59059 12.6462 3.51745V3.51745C12.4614 3.44194 12.3274 3.27394 12.3075 3.0753L12.09 0.900496C12.0389 0.389295 11.6088 0 11.095 0H8.90499ZM10 13C11.6569 13 13 11.6569 13 10C13 8.34315 11.6569 7 10 7C8.34315 7 7 8.34315 7 10C7 11.6569 8.34315 13 10 13Z"/>
</mask>
<path d="M7.90995 0.900497L6.91491 0.800993L6.91491 0.800993L7.90995 0.900497ZM5.04491 2.10159L4.40338 2.86869L4.40338 2.8687L5.04491 2.10159ZM3.69628 2.16159L4.40338 2.86869L4.40338 2.86869L3.69628 2.16159ZM2.11458 3.74329L2.82169 4.45039L2.82169 4.45039L2.11458 3.74329ZM2.00876 5.03276L1.19584 5.61513L1.19584 5.61513L2.00876 5.03276ZM0.900496 7.90995L0.800993 6.91491L0.800992 6.91491L0.900496 7.90995ZM0.900497 12.09L1 11.095L1 11.095L0.900497 12.09ZM2.07006 14.9584L1.28731 14.336L1.28731 14.336L2.07006 14.9584ZM2.1457 16.2878L1.43859 16.9949L1.43859 16.9949L2.1457 16.2878ZM3.73634 17.8785L4.44344 17.1714L4.44344 17.1713L3.73634 17.8785ZM5.03504 17.9776L4.44344 17.1713L4.44344 17.1713L5.03504 17.9776ZM7.90995 19.0995L6.91491 19.199L6.91491 19.199L7.90995 19.0995ZM12.09 19.0995L11.095 19L11.095 19L12.09 19.0995ZM14.9631 17.9656L14.3636 18.7659L14.3636 18.7659L14.9631 17.9656ZM17.8308 16.3114L18.5379 17.0185L18.5379 17.0185L17.8308 16.3114ZM17.8832 14.9538L17.1237 15.6043L17.1237 15.6043L17.8832 14.9538ZM19.0995 12.09L19.199 13.0851L19.199 13.0851L19.0995 12.09ZM19.0995 7.90995L19.199 6.91491L19.199 6.91491L19.0995 7.90995ZM17.9776 5.03502L17.1714 4.44343L17.1714 4.44343L17.9776 5.03502ZM17.8785 3.73632L17.1714 4.44343L17.1714 4.44343L17.8785 3.73632ZM16.2826 2.14046L16.9897 1.43336L16.9897 1.43336L16.2826 2.14046ZM14.9596 2.05971L15.5755 2.84757L15.5755 2.84757L14.9596 2.05971ZM12.09 0.900496L13.0851 0.800993L13.0851 0.800991L12.09 0.900496ZM12.3075 3.0753L11.3125 3.1748L12.3075 3.0753ZM16.5539 6.97522L17.3602 7.56681L16.5539 6.97522ZM13.0771 16.5526L13.6766 15.7523L13.0771 16.5526ZM3.15122 7.68488L3.25072 8.67992L3.15122 7.68488ZM16.5532 13.4007L17.3127 12.7503L16.5532 13.4007ZM13.1825 3.44891L12.5666 2.66105L13.1825 3.44891ZM7.68705 16.8706L8.68209 16.771L7.68705 16.8706ZM12.3111 16.8888L11.3161 16.7893L12.3111 16.8888ZM16.8706 7.68706L16.9701 6.69202L16.8706 7.68706ZM3.06154 12.3062L2.96204 13.3012L3.06154 12.3062ZM6.97521 16.5539L6.38362 15.7477L6.97521 16.5539ZM3.44407 7.0363L2.63115 7.61867L3.44407 7.0363ZM7.69775 3.02245L6.70272 2.92294L7.69775 3.02245ZM8.90499 1L8.90499 1V-1C7.87748 -1 7.01715 -0.22141 6.91491 0.800993L8.90499 1ZM8.69279 3.12195L8.90499 1L6.91491 0.800993L6.70272 2.92294L8.69279 3.12195ZM4.40338 2.8687L6.0134 4.21516L7.29646 2.68096L5.68644 1.33449L4.40338 2.8687ZM4.40338 2.86869L4.40338 2.86869L5.68644 1.3345C4.89192 0.670034 3.72155 0.722097 2.98917 1.45448L4.40338 2.86869ZM2.82169 4.45039L4.40338 2.86869L2.98917 1.45448L1.40747 3.03618L2.82169 4.45039ZM2.82169 4.45039L2.82169 4.45039L1.40747 3.03618C0.715405 3.72825 0.625855 4.8195 1.19584 5.61513L2.82169 4.45039ZM4.257 6.45394L2.82169 4.45039L1.19584 5.61513L2.63115 7.61867L4.257 6.45394ZM1 8.90499L3.25072 8.67992L3.05171 6.68984L0.800993 6.91491L1 8.90499ZM1 8.90499L1 8.90499L0.800992 6.91491C-0.221411 7.01715 -1 7.87748 -1 8.90499H1ZM1 11.095V8.90499H-1V11.095H1ZM1 11.095L1 11.095H-1C-1 12.1225 -0.22141 12.9828 0.800994 13.0851L1 11.095ZM3.16105 11.3111L1 11.095L0.800993 13.0851L2.96204 13.3012L3.16105 11.3111ZM2.85281 15.5807L4.23182 13.8463L2.66633 12.6016L1.28731 14.336L2.85281 15.5807ZM2.85281 15.5807L2.85281 15.5807L1.28731 14.336C0.654519 15.1319 0.719609 16.2759 1.43859 16.9949L2.85281 15.5807ZM4.44344 17.1713L2.85281 15.5807L1.43859 16.9949L3.02923 18.5856L4.44344 17.1713ZM4.44344 17.1713L4.44344 17.1714L3.02923 18.5856C3.7274 19.2837 4.83059 19.3679 5.62663 18.7838L4.44344 17.1713ZM6.38362 15.7477L4.44344 17.1713L5.62663 18.7838L7.56681 17.3602L6.38362 15.7477ZM8.90499 19L8.68209 16.771L6.69202 16.9701L6.91491 19.199L8.90499 19ZM8.90499 19L8.90499 19L6.91491 19.199C7.01715 20.2214 7.87749 21 8.90499 21V19ZM11.095 19H8.90499V21H11.095V19ZM11.095 19L11.095 19V21C12.1225 21 12.9828 20.2214 13.0851 19.199L11.095 19ZM11.3161 16.7893L11.095 19L13.0851 19.199L13.3062 16.9883L11.3161 16.7893ZM15.5627 17.1652L13.6766 15.7523L12.4775 17.3529L14.3636 18.7659L15.5627 17.1652ZM15.5627 17.1652L15.5627 17.1652L14.3636 18.7659C15.1598 19.3624 16.2734 19.2829 16.9769 18.5794L15.5627 17.1652ZM17.1237 15.6043L15.5627 17.1652L16.9769 18.5794L18.5379 17.0185L17.1237 15.6043ZM17.1237 15.6043L17.1237 15.6043L18.5379 17.0185C19.2766 16.2797 19.3223 15.0969 18.6428 14.3033L17.1237 15.6043ZM15.7936 14.0512L17.1237 15.6043L18.6428 14.3033L17.3127 12.7503L15.7936 14.0512ZM19 11.095L16.8955 11.3055L17.0945 13.2955L19.199 13.0851L19 11.095ZM19 11.095L19 11.095L19.199 13.0851C20.2214 12.9828 21 12.1225 21 11.095H19ZM19 8.90499V11.095H21V8.90499H19ZM19 8.90499L19 8.90499H21C21 7.87748 20.2214 7.01715 19.199 6.91491L19 8.90499ZM16.771 8.68209L19 8.90499L19.199 6.91491L16.9701 6.69202L16.771 8.68209ZM17.1714 4.44343L15.7477 6.38362L17.3602 7.56681L18.7838 5.62662L17.1714 4.44343ZM17.1714 4.44343L17.1714 4.44343L18.7838 5.62662C19.368 4.83057 19.2837 3.72738 18.5856 3.02921L17.1714 4.44343ZM15.5755 2.84757L17.1714 4.44343L18.5856 3.02921L16.9897 1.43336L15.5755 2.84757ZM15.5755 2.84757L15.5755 2.84757L16.9897 1.43336C16.2752 0.718824 15.1399 0.649531 14.3438 1.27186L15.5755 2.84757ZM13.7983 4.23677L15.5755 2.84757L14.3438 1.27186L12.5666 2.66105L13.7983 4.23677ZM11.095 1L11.3125 3.1748L13.3026 2.97579L13.0851 0.800993L11.095 1ZM11.095 1L11.095 1L13.0851 0.800991C12.9828 -0.22141 12.1225 -1 11.095 -1V1ZM8.90499 1H11.095V-1H8.90499V1ZM12 10C12 11.1046 11.1046 12 10 12V14C12.2091 14 14 12.2091 14 10H12ZM10 8C11.1046 8 12 8.89543 12 10H14C14 7.79086 12.2091 6 10 6V8ZM8 10C8 8.89543 8.89543 8 10 8V6C7.79086 6 6 7.79086 6 10H8ZM10 12C8.89543 12 8 11.1046 8 10H6C6 12.2091 7.79086 14 10 14V12ZM13.0245 2.59176C13.1562 2.64559 13.2829 2.77888 13.3026 2.97579L11.3125 3.1748C11.3719 3.769 11.7666 4.23828 12.2679 4.44315L13.0245 2.59176ZM17.4317 7.03347C17.4956 7.19365 17.4842 7.39775 17.3602 7.56681L15.7477 6.38362C15.4417 6.80071 15.3963 7.32957 15.5744 7.77543L17.4317 7.03347ZM17.3772 13.0994C17.3425 13.1819 17.2506 13.2799 17.0945 13.2955L16.8955 11.3055C16.2563 11.3694 15.7565 11.7941 15.5336 12.3241L17.3772 13.0994ZM12.9861 17.4238C12.8355 17.4844 12.6399 17.4746 12.4775 17.3529L13.6766 15.7523C13.2473 15.4307 12.6992 15.3833 12.2392 15.5685L12.9861 17.4238ZM2.55907 7.0568C2.63249 6.87131 2.81076 6.71394 3.05171 6.68984L3.25072 8.67992C3.79627 8.62536 4.2326 8.26301 4.41868 7.79289L2.55907 7.0568ZM17.3127 12.7503C17.416 12.8709 17.4142 13.0113 17.3772 13.0994L15.5336 12.3241C15.3021 12.8744 15.3642 13.5497 15.7936 14.0512L17.3127 12.7503ZM12.5666 2.66105C12.7154 2.54474 12.8936 2.5383 13.0245 2.59176L12.2679 4.44315C12.7567 4.64289 13.3449 4.59124 13.7983 4.23677L12.5666 2.66105ZM7.03347 17.4317C6.86343 17.3637 6.71485 17.1984 6.69202 16.9701L8.68209 16.771C8.62614 16.2115 8.25455 15.7658 7.77543 15.5744L7.03347 17.4317ZM6.91911 2.61506C7.01837 2.57361 7.16865 2.57407 7.29646 2.68096L6.0134 4.21516C6.50298 4.62459 7.15539 4.68378 7.68983 4.4606L6.91911 2.61506ZM13.3062 16.9883C13.2844 17.2061 13.1432 17.3606 12.9861 17.4238L12.2392 15.5685C11.7526 15.7644 11.3732 16.2181 11.3161 16.7893L13.3062 16.9883ZM16.9701 6.69202C17.1984 6.71485 17.3637 6.86343 17.4317 7.03347L15.5744 7.77543C15.7658 8.25455 16.2115 8.62614 16.771 8.68209L16.9701 6.69202ZM2.59778 13.0392C2.54727 12.9163 2.55227 12.745 2.66633 12.6016L4.23182 13.8463C4.5998 13.3834 4.65326 12.7792 4.44766 12.2789L2.59778 13.0392ZM2.96204 13.3012C2.77311 13.2823 2.64794 13.1612 2.59778 13.0392L4.44766 12.2789C4.23931 11.772 3.76406 11.3714 3.16105 11.3111L2.96204 13.3012ZM7.56681 17.3602C7.39774 17.4842 7.19365 17.4956 7.03347 17.4317L7.77543 15.5744C7.32957 15.3963 6.8007 15.4417 6.38362 15.7477L7.56681 17.3602ZM2.63115 7.61867C2.50445 7.44182 2.49129 7.22803 2.55907 7.0568L4.41868 7.79289C4.58871 7.36333 4.5455 6.85665 4.257 6.45394L2.63115 7.61867ZM6.70272 2.92294C6.71934 2.75672 6.82451 2.65457 6.91911 2.61506L7.68983 4.4606C8.2127 4.24224 8.62999 3.74999 8.69279 3.12195L6.70272 2.92294Z" fill="black" mask="url(#path-1-inside-1_2_22)"/>
</svg>
