<svg width="22" height="22" viewBox="0 0 22 22" fill="none" xmlns="http://www.w3.org/2000/svg">
<g clip-path="url(#clip0_41_25)">
<path fill-rule="evenodd" clip-rule="evenodd" d="M8.35283 18.1985C8.34817 18.2061 8.34117 18.2113 8.33767 18.2189C8.32425 18.2405 8.31667 18.2638 8.30558 18.2866C8.29742 18.2959 8.28925 18.3117 8.28225 18.3187C8.25113 18.35 8.21415 18.3749 8.17341 18.3919C8.13267 18.4089 8.08898 18.4177 8.04483 18.4178H7.84183C7.75292 18.4177 7.66766 18.3824 7.60462 18.3197C7.54158 18.257 7.50587 18.1719 7.50525 18.083L7.49942 16.4228C7.49911 16.3335 7.53425 16.2477 7.59714 16.1843C7.66002 16.1209 7.74551 16.085 7.83483 16.0845H8.03725C8.22333 16.0845 8.37442 16.235 8.375 16.4199L8.38025 18.0801C8.38025 18.1279 8.36625 18.1635 8.35283 18.1985ZM5.43908 16.6667H5.19292C5.15163 16.6669 5.11071 16.659 5.0725 16.6433C5.0343 16.6277 4.99956 16.6047 4.97028 16.5756C4.94101 16.5464 4.91778 16.5118 4.90193 16.4737C4.88608 16.4356 4.87792 16.3947 4.87792 16.3534L4.87383 15.2177L4.875 15.2089V14.7854C4.87727 14.7041 4.91101 14.6269 4.96912 14.57C5.02723 14.513 5.10516 14.4809 5.1865 14.4803L5.4315 14.4798H5.43267C5.474 14.4795 5.51497 14.4875 5.55321 14.5032C5.59146 14.5188 5.62623 14.5419 5.65551 14.5711C5.68479 14.6003 5.70801 14.6349 5.72382 14.6731C5.73964 14.7113 5.74774 14.7523 5.74767 14.7936L5.75292 16.3505C5.75307 16.3919 5.74507 16.4329 5.72939 16.4711C5.7137 16.5094 5.69062 16.5442 5.66148 16.5736C5.63234 16.603 5.5977 16.6263 5.55954 16.6423C5.52138 16.6582 5.48045 16.6665 5.43908 16.6667ZM3.125 14.7796C3.125 14.7872 3.12267 14.7948 3.12267 14.8023L3.12383 15.2142C3.12276 15.2906 3.0917 15.3635 3.03735 15.4172C2.98301 15.4709 2.90973 15.501 2.83333 15.5012H2.54167C2.46431 15.5012 2.39013 15.4705 2.33543 15.4158C2.28073 15.3611 2.25 15.2869 2.25 15.2095V13.4595C2.25 13.3822 2.28073 13.308 2.33543 13.2533C2.39013 13.1986 2.46431 13.1678 2.54167 13.1678H2.83333C2.91069 13.1678 2.98487 13.1986 3.03957 13.2533C3.09427 13.308 3.125 13.3822 3.125 13.4595V14.7796ZM20.2312 12.1301L19.6304 11.7661L21.5 11.2988V9.49518L17.8798 10.3993C17.6629 10.4545 17.433 10.4237 17.2382 10.3136L13.5311 8.22876C13.4156 8.16321 13.3163 8.0725 13.2406 7.96335L12.1573 6.39593C12.0528 6.24454 11.9031 6.12996 11.7297 6.06849C11.5563 6.00702 11.3679 6.00178 11.1913 6.05351L7.62017 7.09943C7.2445 7.20151 6.84142 7.03935 6.66642 6.75176L6.63258 6.68643L11.8342 3.88818C12.0261 3.7861 12.5692 3.82518 12.9011 4.01185L15.4403 5.45618C16.0196 5.78168 16.6945 5.87618 17.3636 5.71518L21.4994 4.6051V2.79326L16.9319 4.01943C16.7185 4.07126 16.4935 4.04042 16.3019 3.9331L13.7621 2.48876C13.0329 2.07868 11.8563 1.89668 11.0105 2.3441L10.3327 2.70868L4.08458 3.50318C3.92907 3.51727 3.77258 3.49032 3.63075 3.42501L0.5 2.08918V3.99201L2.93075 5.0286C3.26901 5.17947 3.63545 5.25681 4.00583 5.25551C4.09508 5.25551 4.1855 5.25085 4.27767 5.2421L6.03933 5.0181L5.04358 5.5536C4.84126 5.66255 4.68992 5.84672 4.62225 6.06632C4.55458 6.28592 4.57601 6.52333 4.68192 6.72726L5.13983 7.60576C5.43719 8.09717 5.88681 8.47809 6.4204 8.69066C6.95398 8.90323 7.54236 8.93583 8.09617 8.78351L11.077 7.91026L11.8003 8.95735C12.0255 9.28401 12.3271 9.55818 12.673 9.7536L16.3812 11.839C16.4822 11.8956 16.5854 11.9452 16.6922 11.9878L16.6723 12.021L19.3265 13.6281C19.7337 13.8731 19.869 14.4004 19.6345 14.8117L19.6228 14.8309C19.5639 14.9294 19.4859 15.0153 19.3935 15.0834C19.301 15.1515 19.196 15.2005 19.0844 15.2276C18.9733 15.2557 18.8576 15.2615 18.7443 15.2444C18.6309 15.2274 18.5221 15.188 18.4241 15.1284L17.6885 14.6839C17.6809 14.6793 17.6745 14.6723 17.6675 14.6682L14.1687 12.5489C13.9702 12.4286 13.732 12.3921 13.5066 12.4474C13.2812 12.5027 13.087 12.6453 12.9667 12.8438C12.8464 13.0423 12.8099 13.2804 12.8652 13.5059C12.9205 13.7313 13.0631 13.9255 13.2616 14.0458L14.0193 14.5048L14.0182 14.5072L16.7715 16.1749C16.9676 16.2951 17.108 16.488 17.1621 16.7115C17.2163 16.9349 17.1796 17.1707 17.0602 17.3673L17.0503 17.3836C16.9282 17.5768 16.7354 17.7147 16.5131 17.7677C16.2908 17.8208 16.0566 17.7849 15.8603 17.6677L14.9124 17.0931C14.8879 17.0779 14.8687 17.0575 14.8442 17.0429C14.8208 17.0289 14.7963 17.0196 14.773 17.0079L12.3609 15.5484C12.1624 15.4281 11.9243 15.3916 11.6989 15.4469C11.4735 15.5022 11.2792 15.6448 11.159 15.8433C11.0387 16.0418 11.0022 16.2799 11.0575 16.5054C11.1128 16.7308 11.2553 16.925 11.4538 17.0453L13.9727 18.5707C14.1529 18.692 14.2859 18.8676 14.339 19.0805C14.3669 19.192 14.3724 19.308 14.3552 19.4216C14.3379 19.5353 14.2983 19.6444 14.2387 19.7426L14.2287 19.7589C14.107 19.9526 13.9143 20.0909 13.6918 20.144C13.4693 20.1971 13.2348 20.1608 13.0388 20.043L10.1122 18.2697C10.1174 18.2049 10.1297 18.1413 10.1297 18.0748L10.125 16.4147C10.1225 15.8626 9.9017 15.334 9.51074 14.9442C9.11978 14.5545 8.59047 14.3353 8.03842 14.3345H7.83017C7.704 14.3364 7.57827 14.3497 7.4545 14.3742C7.37289 13.978 7.17604 13.6147 6.88867 13.33C6.69747 13.139 6.4704 12.9878 6.22053 12.8848C5.97065 12.7819 5.7029 12.7294 5.43267 12.7303H5.18125C5.03604 12.7315 4.89135 12.7479 4.74958 12.7793C4.60985 12.3823 4.35062 12.0383 4.00751 11.7945C3.6644 11.5507 3.25423 11.4192 2.83333 11.4178H2.54167C1.41583 11.4178 0.5 12.3337 0.5 13.4595V15.2095C0.5 16.3353 1.41583 17.2512 2.54167 17.2512H2.83333C2.99667 17.2512 3.15417 17.2267 3.30817 17.1899C3.4686 17.5559 3.73243 17.8671 4.06725 18.0852C4.40207 18.3034 4.79331 18.419 5.19292 18.4178H5.19875L5.44492 18.4173C5.56158 18.4167 5.67417 18.3998 5.78617 18.3811C5.93317 19.3897 6.79475 20.1684 7.84125 20.1684H7.84825L8.05008 20.1678C8.47598 20.1665 8.89112 20.0339 9.23892 19.7881L12.1334 21.541C12.7298 21.9 13.4444 22.0076 14.12 21.84C14.7957 21.6724 15.3772 21.2435 15.7367 20.6473L15.7769 20.5791C15.9572 20.2553 16.0662 19.8967 16.0966 19.5273C16.1666 19.5332 16.236 19.5413 16.3054 19.5413C16.7585 19.542 17.2041 19.4255 17.5988 19.2031C17.9936 18.9807 18.3241 18.6599 18.5582 18.272L18.5979 18.2032C18.8028 17.8352 18.9148 17.4226 18.924 17.0015C19.3573 16.9951 19.7822 16.8807 20.1601 16.6688C20.5381 16.4568 20.8573 16.154 21.0887 15.7876L21.1237 15.7316C21.4817 15.1353 21.5887 14.4215 21.4215 13.7465C21.2542 13.0715 20.8262 12.4902 20.2312 12.1301Z" fill="black"/>
</g>
<defs>
<clipPath id="clip0_41_25">
<rect width="22" height="22" fill="white"/>
</clipPath>
</defs>
</svg>
