<?xml version="1.0" encoding="utf-8"?>
<!-- Generator: Adobe Illustrator 26.3.1, SVG Export Plug-In . SVG Version: 6.00 Build 0)  -->
<svg version="1.1" id="Layer_1" xmlns="http://www.w3.org/2000/svg" xmlns:xlink="http://www.w3.org/1999/xlink" x="0px" y="0px"
	 viewBox="0 0 957.31 668.71" style="enable-background:new 0 0 957.31 668.71;" xml:space="preserve">
<style type="text/css">
	.st0{fill:#11122B;}
	.st1{fill-rule:evenodd;clip-rule:evenodd;fill:url(#SVGID_1_);}
	.st2{fill-rule:evenodd;clip-rule:evenodd;fill:url(#SVGID_00000070088783810981755800000002696125058223681980_);}
	.st3{fill-rule:evenodd;clip-rule:evenodd;fill:url(#SVGID_00000136403287871984525950000017300474694288989336_);}
	.st4{fill-rule:evenodd;clip-rule:evenodd;fill:url(#SVGID_00000026858267999186171640000010909740309812620719_);}
	.st5{fill-rule:evenodd;clip-rule:evenodd;fill:url(#SVGID_00000135680892728622986050000001876991954433187775_);}
	.st6{fill-rule:evenodd;clip-rule:evenodd;fill:url(#SVGID_00000134232271393400854950000006935558824835360163_);}
	.st7{fill:url(#SVGID_00000140009603018898318810000005583710380359397780_);}
	.st8{fill-rule:evenodd;clip-rule:evenodd;fill:url(#SVGID_00000101798391640956717850000013654740785751901095_);}
	.st9{fill-rule:evenodd;clip-rule:evenodd;fill:url(#SVGID_00000181783184428779283330000007215350830998731183_);}
	.st10{fill-rule:evenodd;clip-rule:evenodd;fill:url(#SVGID_00000005967275559243952970000000234819840409736093_);}
	.st11{fill-rule:evenodd;clip-rule:evenodd;fill:url(#SVGID_00000096766028387507326640000010251519235702455693_);}
	.st12{fill-rule:evenodd;clip-rule:evenodd;fill:url(#SVGID_00000083804575538284068030000002881815993687281817_);}
	.st13{fill-rule:evenodd;clip-rule:evenodd;fill:url(#SVGID_00000160178115853274105150000001612910600242495647_);}
	.st14{fill:url(#SVGID_00000151536870538249842550000008115987374421434280_);}
	.st15{fill:#FFFFFF;}
	.st16{fill-rule:evenodd;clip-rule:evenodd;fill:url(#SVGID_00000163769033441289079500000005720197231345933215_);}
	.st17{fill-rule:evenodd;clip-rule:evenodd;fill:url(#SVGID_00000108294318883388952360000008735717939036315833_);}
	.st18{fill-rule:evenodd;clip-rule:evenodd;fill:url(#SVGID_00000170956670579198852150000009562995457584651672_);}
	.st19{fill-rule:evenodd;clip-rule:evenodd;fill:url(#SVGID_00000105393801625064219590000012410783530414655106_);}
	.st20{fill-rule:evenodd;clip-rule:evenodd;fill:url(#SVGID_00000055668308056591609040000004915646191945590698_);}
	.st21{fill-rule:evenodd;clip-rule:evenodd;fill:url(#SVGID_00000021120031522591160360000002530443887360955057_);}
	.st22{fill:url(#SVGID_00000125583065874444600330000009604809309557953979_);}
	.st23{fill-rule:evenodd;clip-rule:evenodd;fill:url(#SVGID_00000021085183003840675270000005698196796255909028_);}
	.st24{fill-rule:evenodd;clip-rule:evenodd;fill:url(#SVGID_00000165933820625964621320000000788178155842637698_);}
	.st25{fill-rule:evenodd;clip-rule:evenodd;fill:url(#SVGID_00000057133051821621524490000002571089518230894009_);}
	.st26{fill-rule:evenodd;clip-rule:evenodd;fill:url(#SVGID_00000142139306334198726530000003718611671891943602_);}
	.st27{fill-rule:evenodd;clip-rule:evenodd;fill:url(#SVGID_00000118361589237193050610000008814801637714536846_);}
	.st28{fill-rule:evenodd;clip-rule:evenodd;fill:url(#SVGID_00000013164325856196961390000003679521368426962330_);}
	.st29{fill:url(#SVGID_00000042704024511289588210000010428360242544294569_);}
	.st30{fill-rule:evenodd;clip-rule:evenodd;fill:url(#SVGID_00000103957503906586780770000007490989191719162777_);}
	.st31{fill-rule:evenodd;clip-rule:evenodd;fill:url(#SVGID_00000018948469515397553470000014332222626425752755_);}
	.st32{fill-rule:evenodd;clip-rule:evenodd;fill:url(#SVGID_00000090281752413466818540000001666342694777663677_);}
	.st33{fill-rule:evenodd;clip-rule:evenodd;fill:url(#SVGID_00000089567995368264523810000015063422776584574350_);}
	.st34{fill-rule:evenodd;clip-rule:evenodd;fill:url(#SVGID_00000067936591472736829200000015980824071129373117_);}
	.st35{fill-rule:evenodd;clip-rule:evenodd;fill:url(#SVGID_00000012465374816297120970000017686992286247606962_);}
	.st36{fill-rule:evenodd;clip-rule:evenodd;fill:url(#SVGID_00000160891502251453331640000014833714317581173135_);}
	.st37{fill-rule:evenodd;clip-rule:evenodd;fill:url(#SVGID_00000057858255877537249190000017485209516735660943_);}
	.st38{fill-rule:evenodd;clip-rule:evenodd;fill:url(#SVGID_00000129184216340976216590000015290107367237379775_);}
	.st39{fill-rule:evenodd;clip-rule:evenodd;fill:url(#SVGID_00000003815033929440307240000004685434037398726839_);}
	.st40{fill-rule:evenodd;clip-rule:evenodd;fill:url(#SVGID_00000052825124770108195500000014905455299104638631_);}
	.st41{fill-rule:evenodd;clip-rule:evenodd;fill:url(#SVGID_00000135652073082638910700000004166266280675026582_);}
	.st42{fill-rule:evenodd;clip-rule:evenodd;fill:url(#SVGID_00000024709709991110747810000002084927925749667253_);}
	.st43{fill-rule:evenodd;clip-rule:evenodd;fill:url(#SVGID_00000092453847901664540670000010047736110093963947_);}
	.st44{fill-rule:evenodd;clip-rule:evenodd;fill:url(#SVGID_00000064338519642373334480000014194499258232658560_);}
	.st45{fill-rule:evenodd;clip-rule:evenodd;fill:url(#SVGID_00000109717129384631662650000001910870399618339753_);}
	.st46{fill-rule:evenodd;clip-rule:evenodd;fill:url(#SVGID_00000096036041280691889250000008436041329421708709_);}
	.st47{fill-rule:evenodd;clip-rule:evenodd;fill:url(#SVGID_00000143605250684018016830000004043751352003001229_);}
	.st48{fill:url(#SVGID_00000010281967274253714920000005373685927852240059_);}
	.st49{fill-rule:evenodd;clip-rule:evenodd;fill:url(#SVGID_00000158743311043080281470000000034460058330124175_);}
	.st50{fill-rule:evenodd;clip-rule:evenodd;fill:url(#SVGID_00000140727711284597757290000016163009670563658903_);}
	.st51{fill-rule:evenodd;clip-rule:evenodd;fill:url(#SVGID_00000134216814618882988610000008742434011349443468_);}
	.st52{fill-rule:evenodd;clip-rule:evenodd;fill:url(#SVGID_00000025402214742559557810000013556215232443235753_);}
	.st53{fill-rule:evenodd;clip-rule:evenodd;fill:url(#SVGID_00000006694621150438217620000001273152595376679577_);}
	.st54{fill-rule:evenodd;clip-rule:evenodd;fill:url(#SVGID_00000074410635159513592780000017126965453328313002_);}
	.st55{fill:url(#SVGID_00000059293239152838100730000002319591748906141611_);}
</style>
<g>
	<g>
		<path class="st0" d="M38.02,561.94c5.07,0,10.59,0.27,16.55,0.82c5.97,0.55,11.78,1.67,17.45,3.36l-1.49,15.06
			c-4.38-0.1-9.49-0.2-15.36-0.3c-5.87-0.1-11.63-0.15-17.3-0.15c-2.78,0-5.15,0.08-7.08,0.23c-1.94,0.15-3.5,0.55-4.7,1.19
			c-1.19,0.65-2.04,1.62-2.54,2.91c-0.5,1.29-0.74,3.08-0.74,5.37c0,3.48,0.82,6.02,2.46,7.6c1.64,1.59,4.45,3.03,8.43,4.32
			l19.83,6.41c8.25,2.78,13.96,6.56,17.15,11.33c3.18,4.77,4.77,11.03,4.77,18.79c0,5.87-0.7,10.74-2.09,14.61
			c-1.4,3.88-3.58,6.91-6.56,9.09c-2.98,2.19-6.91,3.75-11.78,4.7c-4.87,0.94-10.84,1.42-17.89,1.42c-3.38,0-8.2-0.22-14.46-0.67
			c-6.26-0.45-13.42-1.56-21.47-3.35l1.49-16.11c5.86,0.1,10.96,0.22,15.28,0.37c4.33,0.15,8.03,0.25,11.11,0.3
			c3.08,0.05,5.77,0.07,8.05,0.07c3.98,0,7.08-0.25,9.32-0.75c2.24-0.5,3.8-1.49,4.7-2.98c0.9-1.49,1.34-3.63,1.34-6.41
			c0-2.39-0.32-4.3-0.97-5.74c-0.65-1.44-1.69-2.59-3.13-3.43c-1.44-0.84-3.41-1.61-5.89-2.31l-20.88-7.16
			c-7.85-2.88-13.42-6.66-16.7-11.33C1.64,604.54,0,598.38,0,590.72c0-5.96,0.72-10.81,2.16-14.54c1.44-3.73,3.67-6.64,6.71-8.72
			c3.03-2.09,6.96-3.53,11.78-4.32C25.47,562.34,31.26,561.94,38.02,561.94z"/>
		<path class="st0" d="M138.97,593.11v14.46H79.32v-13.72l15.35-0.75H138.97z M118.4,572.68v70.53c0,2.68,0.62,4.6,1.86,5.74
			c1.24,1.14,3.31,1.71,6.19,1.71h9.54l2.38,14.91c-1.79,0.6-3.98,1.12-6.56,1.56c-2.59,0.45-5.17,0.8-7.76,1.05
			c-2.59,0.25-4.77,0.37-6.56,0.37c-6.66,0-11.86-1.79-15.58-5.37c-3.73-3.58-5.59-8.6-5.59-15.06l-0.15-75.45H118.4z"/>
		<path class="st0" d="M185.65,591.17c12.42,0,21.35,2.11,26.76,6.34c5.42,4.23,8.13,10.51,8.13,18.86
			c0.1,6.76-1.59,11.81-5.07,15.14c-3.48,3.33-9.5,4.99-18.04,4.99h-41.15v-12.38h35.04c3.38,0,5.54-0.72,6.48-2.16
			c0.94-1.44,1.42-3.45,1.42-6.04c-0.1-3.48-1.12-5.89-3.06-7.23c-1.94-1.34-5.19-2.01-9.77-2.01c-4.08,0-7.26,0.55-9.54,1.64
			c-2.29,1.1-3.88,3.18-4.77,6.26c-0.89,3.08-1.34,7.56-1.34,13.42c0,6.16,0.55,10.91,1.64,14.24c1.09,3.33,2.96,5.64,5.59,6.93
			c2.63,1.29,6.29,1.94,10.96,1.94c3.38,0,7.58-0.12,12.6-0.37c5.02-0.25,10.07-0.67,15.13-1.27l2.09,13.57
			c-2.88,1.39-6.17,2.49-9.84,3.28c-3.68,0.79-7.46,1.36-11.33,1.71c-3.88,0.35-7.6,0.52-11.18,0.52c-9.34,0-16.87-1.37-22.59-4.1
			c-5.72-2.73-9.84-6.93-12.38-12.6c-2.53-5.67-3.8-12.92-3.8-21.77c0-9.64,1.29-17.3,3.88-22.96c2.58-5.67,6.66-9.74,12.23-12.23
			C169.29,592.41,176.6,591.17,185.65,591.17z"/>
		<path class="st0" d="M293.46,621.44l-0.15,12.38l-32.81,0.15c-2.68,0-4.6,0.65-5.74,1.94c-1.14,1.29-1.72,3.04-1.72,5.22v3.58
			c0,2.49,0.69,4.4,2.09,5.74c1.39,1.34,3.63,2.01,6.71,2.01c2.58,0,5.39-0.54,8.42-1.64c3.03-1.09,6.04-2.63,9.02-4.62
			c2.98-1.99,5.62-4.32,7.91-7.01v9.54c-0.9,1.49-2.21,3.36-3.95,5.59c-1.74,2.24-3.95,4.43-6.63,6.56
			c-2.69,2.14-5.81,3.95-9.39,5.44c-3.58,1.49-7.66,2.24-12.23,2.24c-4.47,0-8.5-0.8-12.08-2.39c-3.58-1.59-6.41-3.92-8.5-7.01
			c-2.09-3.08-3.13-6.91-3.13-11.48v-7.6c0-5.86,1.99-10.44,5.96-13.72c3.98-3.28,9.44-4.92,16.4-4.92H293.46z M273.77,591.17
			c6.16,0,11.38,0.82,15.66,2.46c4.27,1.64,7.53,4.43,9.77,8.35c2.24,3.93,3.36,9.32,3.36,16.18v48.61h-17.6l-3.13-15.95l-1.49-2.24
			v-30.57c0-3.48-0.82-6.01-2.46-7.6c-1.64-1.59-4.75-2.39-9.32-2.39c-3.78,0-8.5,0.13-14.16,0.37c-5.67,0.25-11.48,0.57-17.45,0.97
			l-2.09-14.61c3.58-0.69,7.7-1.29,12.38-1.79c4.67-0.5,9.34-0.92,14.01-1.27C265.92,591.34,270.09,591.17,273.77,591.17z"/>
		<path class="st0" d="M337.44,593.11l2.24,14.61l2.24,1.94v57.11h-22.07v-73.66H337.44z M367.26,591.17
			c6.56,0,11.56,1.72,14.99,5.14c3.43,3.43,5.14,8.53,5.14,15.28v55.17h-21.17v-48.31c0-3.18-0.67-5.42-2.01-6.71
			c-1.34-1.29-3.41-1.94-6.19-1.94c-1.69,0-3.35,0.22-4.99,0.67c-1.64,0.45-3.53,1.22-5.67,2.31c-2.14,1.09-4.75,2.64-7.83,4.62
			l-1.34-12.23c4.87-4.67,9.59-8.17,14.16-10.51C356.92,592.34,361.9,591.17,367.26,591.17z M413.19,591.17
			c6.66,0,11.73,1.74,15.21,5.22c3.48,3.48,5.22,8.55,5.22,15.21v55.17H411.7v-48.31c0-3.08-0.6-5.29-1.79-6.64
			c-1.19-1.34-3.28-2.01-6.26-2.01c-1.79,0-3.48,0.25-5.07,0.75c-1.59,0.5-3.43,1.29-5.52,2.38c-2.09,1.1-4.62,2.59-7.6,4.47
			l-1.19-12.23c4.77-4.67,9.47-8.17,14.09-10.51C402.98,592.34,407.92,591.17,413.19,591.17z"/>
		<path class="st0" d="M515.19,563.88v17.89h-84.7v-17.89H515.19z M484.17,563.88v102.89h-22.81V563.88H484.17z"/>
		<path class="st0" d="M532.64,593.11l2.68,14.61l2.09,1.94v57.11h-22.07v-73.66H532.64z M568.57,591.17l-2.09,20.43h-6.11
			c-3.48,0-7.11,0.5-10.89,1.49c-3.78,0.99-8.55,2.49-14.32,4.47l-1.49-12.38c5.17-4.57,10.39-8.05,15.66-10.44
			c5.27-2.39,10.39-3.58,15.36-3.58H568.57z"/>
		<path class="st0" d="M637.16,621.44l-0.15,12.38l-32.8,0.15c-2.69,0-4.6,0.65-5.74,1.94c-1.14,1.29-1.71,3.04-1.71,5.22v3.58
			c0,2.49,0.69,4.4,2.09,5.74c1.39,1.34,3.62,2.01,6.71,2.01c2.58,0,5.39-0.54,8.43-1.64c3.03-1.09,6.04-2.63,9.02-4.62
			c2.98-1.99,5.61-4.32,7.9-7.01v9.54c-0.89,1.49-2.21,3.36-3.95,5.59c-1.74,2.24-3.95,4.43-6.64,6.56
			c-2.68,2.14-5.81,3.95-9.39,5.44c-3.58,1.49-7.65,2.24-12.23,2.24c-4.48,0-8.5-0.8-12.08-2.39c-3.58-1.59-6.41-3.92-8.5-7.01
			c-2.09-3.08-3.13-6.91-3.13-11.48v-7.6c0-5.86,1.99-10.44,5.96-13.72c3.98-3.28,9.44-4.92,16.4-4.92H637.16z M617.48,591.17
			c6.16,0,11.38,0.82,15.66,2.46c4.27,1.64,7.53,4.43,9.77,8.35c2.24,3.93,3.35,9.32,3.35,16.18v48.61h-17.59l-3.13-15.95
			l-1.49-2.24v-30.57c0-3.48-0.82-6.01-2.46-7.6c-1.64-1.59-4.75-2.39-9.32-2.39c-3.78,0-8.5,0.13-14.17,0.37
			s-11.48,0.57-17.44,0.97l-2.09-14.61c3.58-0.69,7.7-1.29,12.37-1.79c4.67-0.5,9.34-0.92,14.02-1.27
			C609.63,591.34,613.8,591.17,617.48,591.17z"/>
		<path class="st0" d="M697.85,591.17c2.68,0,5.61,0.13,8.8,0.37c3.18,0.25,6.39,0.7,9.62,1.34c3.23,0.65,6.19,1.56,8.87,2.76
			l-2.39,13.87c-3.98-0.1-7.78-0.2-11.41-0.3c-3.63-0.1-6.89-0.15-9.77-0.15c-4.48,0-8,0.6-10.59,1.79
			c-2.59,1.19-4.45,3.31-5.59,6.34c-1.14,3.03-1.72,7.23-1.72,12.6c0,5.47,0.57,9.74,1.72,12.82c1.14,3.08,3,5.22,5.59,6.41
			c2.58,1.19,6.11,1.79,10.59,1.79c1.59,0,3.63-0.05,6.11-0.15c2.48-0.1,5.17-0.22,8.05-0.37c2.88-0.15,5.72-0.42,8.5-0.82
			l2.09,14.02c-3.98,1.79-8.5,3.08-13.57,3.88c-5.07,0.79-10.09,1.19-15.06,1.19c-9.15,0-16.43-1.27-21.85-3.8
			c-5.42-2.54-9.32-6.64-11.71-12.3c-2.38-5.67-3.58-13.22-3.58-22.66c0-9.44,1.22-17,3.65-22.67c2.44-5.67,6.39-9.74,11.86-12.23
			C681.55,592.41,688.81,591.17,697.85,591.17z"/>
		<path class="st0" d="M761.52,562.39l0.15,43.09c0,3.48-0.2,6.86-0.6,10.14c-0.4,3.28-1,6.51-1.79,9.69
			c0.69,3.08,1.24,6.24,1.64,9.47c0.4,3.23,0.6,6.24,0.6,9.02v22.96h-22.07V562.39H761.52z M771.81,619.05v13.42h-17.15v-13.42
			H771.81z M810.73,593.11l-19.24,25.65c-0.89,1.39-2.04,2.74-3.43,4.03c-1.4,1.29-2.54,2.24-3.43,2.83v0.6
			c0.89,0.5,2.03,1.54,3.43,3.13c1.39,1.59,2.53,3.18,3.43,4.77l21.77,32.66h-24.6l-25.2-41.45l22.66-32.21H810.73z"/>
		<path class="st0" d="M854.87,591.17c12.42,0,21.35,2.11,26.76,6.34c5.42,4.23,8.13,10.51,8.13,18.86
			c0.1,6.76-1.59,11.81-5.07,15.14c-3.48,3.33-9.5,4.99-18.04,4.99h-41.15v-12.38h35.04c3.38,0,5.54-0.72,6.48-2.16
			c0.94-1.44,1.42-3.45,1.42-6.04c-0.1-3.48-1.12-5.89-3.06-7.23c-1.94-1.34-5.19-2.01-9.77-2.01c-4.08,0-7.26,0.55-9.54,1.64
			c-2.29,1.1-3.88,3.18-4.77,6.26c-0.89,3.08-1.34,7.56-1.34,13.42c0,6.16,0.55,10.91,1.64,14.24c1.09,3.33,2.96,5.64,5.59,6.93
			c2.63,1.29,6.29,1.94,10.96,1.94c3.38,0,7.58-0.12,12.6-0.37c5.02-0.25,10.07-0.67,15.13-1.27l2.09,13.57
			c-2.88,1.39-6.17,2.49-9.84,3.28c-3.68,0.79-7.46,1.36-11.33,1.71c-3.88,0.35-7.6,0.52-11.18,0.52c-9.34,0-16.87-1.37-22.59-4.1
			c-5.72-2.73-9.84-6.93-12.38-12.6c-2.53-5.67-3.8-12.92-3.8-21.77c0-9.64,1.29-17.3,3.88-22.96c2.58-5.67,6.66-9.74,12.23-12.23
			C838.51,592.41,845.82,591.17,854.87,591.17z"/>
		<path class="st0" d="M921.37,593.11l2.68,14.61l2.09,1.94v57.11h-22.07v-73.66H921.37z M957.31,591.17l-2.09,20.43h-6.11
			c-3.48,0-7.11,0.5-10.89,1.49c-3.78,0.99-8.55,2.49-14.32,4.47l-1.49-12.38c5.17-4.57,10.39-8.05,15.66-10.44
			c5.27-2.39,10.39-3.58,15.36-3.58H957.31z"/>
	</g>
	<g>
		<g>
			<linearGradient id="SVGID_1_" gradientUnits="userSpaceOnUse" x1="516.005" y1="307.6481" x2="709.7297" y2="307.6481">
				<stop  offset="0" style="stop-color:#FF3C3E"/>
				<stop  offset="0.3412" style="stop-color:#E72C51"/>
				<stop  offset="1" style="stop-color:#AF067D"/>
			</linearGradient>
			<path class="st1" d="M704.93,178.5c-8.04-10.86-23.36-13.15-34.22-5.11c-10.86,8.04-13.15,23.36-5.12,34.22
				c2.35,3.18,5.33,5.62,8.63,7.29c1.18,30.63-4.87,60.68-17.16,87.95c-13.53,30.04-34.67,56.68-62.07,76.95
				c-7.31,5.41-14.81,10.22-22.47,14.41c-5.66,3.1-11.47,5.91-17.43,8.44c-8.43-6.3-20.3-6.64-29.19-0.06
				c-10.86,8.04-13.15,23.36-5.12,34.22c8.04,10.86,23.36,13.15,34.22,5.12c4.91-3.64,8.07-8.76,9.32-14.29
				c7.18-3,14.2-6.38,21.04-10.12c9-4.92,17.52-10.36,25.5-16.26c31.09-23,55.09-53.28,70.49-87.46
				c14.18-31.48,21.04-66.29,19.37-101.78C710.8,203.79,712.73,189.05,704.93,178.5z M546.51,430.41
				c-4.51,3.34-10.87,2.39-14.21-2.12c-3.34-4.51-2.39-10.87,2.12-14.21c4.51-3.34,10.87-2.39,14.21,2.12
				C551.97,420.71,551.02,427.07,546.51,430.41z M691.31,201.22c-4.51,3.34-10.87,2.39-14.21-2.12c-3.34-4.51-2.39-10.87,2.12-14.21
				c4.51-3.34,10.87-2.39,14.21,2.12C696.77,191.52,695.82,197.88,691.31,201.22z"/>
			
				<linearGradient id="SVGID_00000007416723484603122030000007200675696563011767_" gradientUnits="userSpaceOnUse" x1="316.1375" y1="45.4761" x2="643.4269" y2="45.4761">
				<stop  offset="0" style="stop-color:#FF3C3E"/>
				<stop  offset="0.3412" style="stop-color:#E72C51"/>
				<stop  offset="1" style="stop-color:#AF067D"/>
			</linearGradient>
			<path style="fill-rule:evenodd;clip-rule:evenodd;fill:url(#SVGID_00000007416723484603122030000007200675696563011767_);" d="
				M355.16,85.75c7.37-5.45,10.79-14.26,9.72-22.75c34.81-24.84,75.62-36.96,116.22-36.43c39.93,0.52,79.72,13.23,113.47,38.07
				c-0.43,5.65,1.09,11.48,4.73,16.4c8.04,10.86,23.36,13.15,34.22,5.12c10.86-8.04,13.15-23.36,5.12-34.22
				c-6.58-8.9-18.06-12.04-27.96-8.47C572.28,15.12,526.95,0.61,481.42,0.02c-46.95-0.61-94.05,13.57-133.89,42.6
				c-7.1-2.09-15.07-0.95-21.48,3.8c-10.86,8.04-13.15,23.36-5.12,34.22C328.97,91.5,344.29,93.79,355.16,85.75z M612.92,58.32
				c4.51-3.34,10.87-2.39,14.21,2.12c3.34,4.51,2.39,10.87-2.12,14.21c-4.51,3.34-10.87,2.39-14.21-2.12
				C607.46,68.02,608.41,61.66,612.92,58.32z M334.56,57.92c4.51-3.34,10.87-2.39,14.21,2.12c3.34,4.51,2.39,10.87-2.12,14.21
				c-4.51,3.34-10.87,2.39-14.21-2.12C329.1,67.62,330.05,61.26,334.56,57.92z"/>
			
				<linearGradient id="SVGID_00000026122472292028581590000005023332015931589267_" gradientUnits="userSpaceOnUse" x1="247.576" y1="299.1921" x2="434.6058" y2="299.1921">
				<stop  offset="0" style="stop-color:#FF3C3E"/>
				<stop  offset="0.3412" style="stop-color:#E72C51"/>
				<stop  offset="1" style="stop-color:#AF067D"/>
			</linearGradient>
			<path style="fill-rule:evenodd;clip-rule:evenodd;fill:url(#SVGID_00000026122472292028581590000005023332015931589267_);" d="
				M396.53,400.22c-13.97-6.45-27.15-14.57-39.28-24.15c-13.56-10.7-25.7-23.21-36.08-37.23c-15.53-20.99-26.55-44.61-32.68-69.4
				c-5.65-22.82-7.2-46.65-4.36-70.35c0.84-0.48,1.67-1.01,2.47-1.61c10.86-8.04,13.15-23.36,5.12-34.22
				c-8.04-10.86-23.36-13.15-34.22-5.12c-10.86,8.04-13.15,23.36-5.12,34.22c1.49,2.02,3.23,3.74,5.15,5.15
				c-2.98,26.43-1.17,52.95,5.11,78.34c6.99,28.23,19.49,55.07,37.08,78.85c11.77,15.91,25.57,30.12,40.98,42.28
				c13.82,10.91,29.02,20.2,45.31,27.65c0.62,3.67,2.09,7.26,4.46,10.45c8.04,10.86,23.36,13.15,34.22,5.12
				c10.86-8.04,13.15-23.36,5.12-34.22C422,395.45,407.32,392.99,396.53,400.22z M278.08,186c-4.51,3.34-10.87,2.39-14.21-2.12
				c-3.34-4.51-2.39-10.87,2.12-14.21c4.51-3.34,10.87-2.39,14.21,2.12C283.55,176.3,282.6,182.66,278.08,186z M416.18,428.72
				c-4.51,3.34-10.87,2.39-14.21-2.12c-3.34-4.51-2.39-10.87,2.12-14.21c4.51-3.34,10.87-2.39,14.21,2.12
				C421.64,419.02,420.69,425.38,416.18,428.72z"/>
			
				<linearGradient id="SVGID_00000008833852423376396760000014708548106726796479_" gradientUnits="userSpaceOnUse" x1="340.903" y1="159.6209" x2="608.315" y2="159.6209">
				<stop  offset="0" style="stop-color:#FF3C3E"/>
				<stop  offset="0.3412" style="stop-color:#E72C51"/>
				<stop  offset="1" style="stop-color:#AF067D"/>
			</linearGradient>
			<path style="fill-rule:evenodd;clip-rule:evenodd;fill:url(#SVGID_00000008833852423376396760000014708548106726796479_);" d="
				M498,91.06c-59.75-8.93-116.08,24.2-138.95,77.15c-1.69,3.92-3.2,7.94-4.51,12.06l0.22-0.12c-7.05,3.79-12.29,10.75-13.56,19.28
				c-2.15,14.36,7.76,27.75,22.12,29.89c14.36,2.15,27.74-7.76,29.89-22.12c1.04-6.95-0.74-13.67-4.48-19l0.16,0.22
				c1.22-3.49,2.64-6.88,4.23-10.16c17.72-36.39,57.54-58.75,99.69-52.45c42.15,6.3,73.69,39.33,79.99,79.3
				c6.69-3.71,14.62-5.33,22.78-4.11c4.63,0.69,8.92,2.23,12.74,4.45C601.93,148.15,557.75,100,498,91.06z M366.65,215.1
				c-6.56,0-11.89-5.32-11.89-11.89c0-6.56,5.32-11.89,11.89-11.89c6.56,0,11.89,5.32,11.89,11.89
				C378.54,209.78,373.21,215.1,366.65,215.1z"/>
			
				<linearGradient id="SVGID_00000075144738737834143330000016999993331028626087_" gradientUnits="userSpaceOnUse" x1="613.7965" y1="280.3779" x2="362.2579" y2="280.3779">
				<stop  offset="0" style="stop-color:#FF3C3E"/>
				<stop  offset="0.3412" style="stop-color:#E72C51"/>
				<stop  offset="1" style="stop-color:#AF067D"/>
			</linearGradient>
			<path style="fill-rule:evenodd;clip-rule:evenodd;fill:url(#SVGID_00000075144738737834143330000016999993331028626087_);" d="
				M594.14,210.66c-14.36-2.15-27.75,7.75-29.89,22.12c-1.04,6.95,0.74,13.67,4.48,19l-0.16-0.23c-1.22,3.49-2.64,6.88-4.24,10.16
				c-17.72,36.39-57.54,58.75-99.68,52.45c-42.15-6.3-73.69-39.33-79.99-79.31c-6.7,3.71-14.63,5.33-22.78,4.11
				c-4.63-0.69-8.92-2.23-12.74-4.45c6.39,57.33,50.57,105.49,110.32,114.42c59.75,8.93,116.08-24.2,138.95-77.15
				c1.69-3.92,3.2-7.94,4.51-12.06l-0.22,0.12c7.05-3.79,12.28-10.75,13.56-19.28C618.4,226.2,608.5,212.81,594.14,210.66z
				 M590.86,247.26c-6.56,0-11.89-5.32-11.89-11.89c0-6.56,5.32-11.89,11.89-11.89c6.56,0,11.89,5.32,11.89,11.89
				C602.75,241.94,597.42,247.26,590.86,247.26z"/>
		</g>
		
			<linearGradient id="SVGID_00000077294390130630266180000011989511760717441978_" gradientUnits="userSpaceOnUse" x1="440.8267" y1="221.8485" x2="518.7378" y2="221.8485">
			<stop  offset="0" style="stop-color:#FF3C3E"/>
			<stop  offset="0.3412" style="stop-color:#E72C51"/>
			<stop  offset="1" style="stop-color:#AF067D"/>
		</linearGradient>
		
			<circle style="fill-rule:evenodd;clip-rule:evenodd;fill:url(#SVGID_00000077294390130630266180000011989511760717441978_);" cx="479.78" cy="221.85" r="38.96"/>
	</g>
	
		<linearGradient id="SVGID_00000088852956852685071880000013245872539437232532_" gradientUnits="userSpaceOnUse" x1="430.4911" y1="572.8271" x2="515.1882" y2="572.8271">
		<stop  offset="0" style="stop-color:#FF3C3E"/>
		<stop  offset="0.3412" style="stop-color:#E72C51"/>
		<stop  offset="1" style="stop-color:#AF067D"/>
	</linearGradient>
	
		<rect x="430.49" y="563.88" style="fill:url(#SVGID_00000088852956852685071880000013245872539437232532_);" width="84.7" height="17.89"/>
</g>
</svg>
