<?xml version="1.0" encoding="utf-8"?>
<!-- Generator: Adobe Illustrator 26.3.1, SVG Export Plug-In . SVG Version: 6.00 Build 0)  -->
<svg version="1.1" id="Layer_1" xmlns="http://www.w3.org/2000/svg" xmlns:xlink="http://www.w3.org/1999/xlink" x="0px" y="0px"
	 viewBox="0 0 1080 1080" style="enable-background:new 0 0 1080 1080;" xml:space="preserve">
<style type="text/css">
	.st0{fill:#11122B;}
	.st1{fill-rule:evenodd;clip-rule:evenodd;fill:url(#SVGID_1_);}
	.st2{fill-rule:evenodd;clip-rule:evenodd;fill:url(#SVGID_00000070820829239418272220000005074777419748085636_);}
	.st3{fill-rule:evenodd;clip-rule:evenodd;fill:url(#SVGID_00000123436031018214361610000002996207094121929383_);}
	.st4{fill-rule:evenodd;clip-rule:evenodd;fill:url(#SVGID_00000181793035973148505100000007620738654532023965_);}
	.st5{fill-rule:evenodd;clip-rule:evenodd;fill:url(#SVGID_00000032615792190455242710000018255328830165266055_);}
	.st6{fill-rule:evenodd;clip-rule:evenodd;fill:url(#SVGID_00000065067838291636255240000000947046390251646619_);}
	.st7{fill:url(#SVGID_00000088830479600629306900000006418831411273385146_);}
	.st8{fill-rule:evenodd;clip-rule:evenodd;fill:url(#SVGID_00000047032432230823466810000015614071744596645301_);}
	.st9{fill-rule:evenodd;clip-rule:evenodd;fill:url(#SVGID_00000045611664566112850400000013013438965706888081_);}
	.st10{fill-rule:evenodd;clip-rule:evenodd;fill:url(#SVGID_00000005989406986279052920000004758727565219859600_);}
	.st11{fill-rule:evenodd;clip-rule:evenodd;fill:url(#SVGID_00000062897110729843073870000001393344455502348445_);}
	.st12{fill-rule:evenodd;clip-rule:evenodd;fill:url(#SVGID_00000139975154005698137490000014094981822196889227_);}
	.st13{fill-rule:evenodd;clip-rule:evenodd;fill:url(#SVGID_00000133503955005706234010000003131651523882768020_);}
	.st14{fill:url(#SVGID_00000042733897464972153130000015319949795382242736_);}
	.st15{fill:#FFFFFF;}
	.st16{fill-rule:evenodd;clip-rule:evenodd;fill:url(#SVGID_00000004542215071762662250000005582130241067867783_);}
	.st17{fill-rule:evenodd;clip-rule:evenodd;fill:url(#SVGID_00000077291821933495346040000012019344964547758255_);}
	.st18{fill-rule:evenodd;clip-rule:evenodd;fill:url(#SVGID_00000175321885531435517110000004363976497488747395_);}
	.st19{fill-rule:evenodd;clip-rule:evenodd;fill:url(#SVGID_00000129907448429358240960000004648610348723220103_);}
	.st20{fill-rule:evenodd;clip-rule:evenodd;fill:url(#SVGID_00000135674896262612315350000016623498226040019634_);}
	.st21{fill-rule:evenodd;clip-rule:evenodd;fill:url(#SVGID_00000025415228645321801190000005211971714416403847_);}
	.st22{fill:url(#SVGID_00000000192312737855860440000002076687284858145714_);}
	.st23{fill-rule:evenodd;clip-rule:evenodd;fill:url(#SVGID_00000119078506968691390840000010882489692153541778_);}
	.st24{fill-rule:evenodd;clip-rule:evenodd;fill:url(#SVGID_00000054963379100284078490000011564571112393557660_);}
	.st25{fill-rule:evenodd;clip-rule:evenodd;fill:url(#SVGID_00000080928215960822421900000007566149175240728458_);}
	.st26{fill-rule:evenodd;clip-rule:evenodd;fill:url(#SVGID_00000044143009517163841220000000131792071627375508_);}
	.st27{fill-rule:evenodd;clip-rule:evenodd;fill:url(#SVGID_00000002368315707719552180000010779539848012870557_);}
	.st28{fill-rule:evenodd;clip-rule:evenodd;fill:url(#SVGID_00000019667552187778945160000009726981960670845877_);}
	.st29{fill:url(#SVGID_00000148649817821361420880000002092538439715395480_);}
	.st30{fill-rule:evenodd;clip-rule:evenodd;fill:url(#SVGID_00000056386824908870882830000002388384756046481552_);}
	.st31{fill-rule:evenodd;clip-rule:evenodd;fill:url(#SVGID_00000031176936101672507060000007658373581433840040_);}
	.st32{fill-rule:evenodd;clip-rule:evenodd;fill:url(#SVGID_00000048490978850449509460000014794190918743551153_);}
	.st33{fill-rule:evenodd;clip-rule:evenodd;fill:url(#SVGID_00000106115197670218624370000012755568655330767007_);}
	.st34{fill-rule:evenodd;clip-rule:evenodd;fill:url(#SVGID_00000067941749817745234430000003530382367385052565_);}
	.st35{fill-rule:evenodd;clip-rule:evenodd;fill:url(#SVGID_00000057124884448077742790000007769890672649281175_);}
	.st36{fill-rule:evenodd;clip-rule:evenodd;fill:url(#SVGID_00000178911333632214861770000013586199823555693498_);}
	.st37{fill-rule:evenodd;clip-rule:evenodd;fill:url(#SVGID_00000029759095598934342900000016176587253069940387_);}
	.st38{fill-rule:evenodd;clip-rule:evenodd;fill:url(#SVGID_00000144328008604492975740000004735770127096144292_);}
	.st39{fill-rule:evenodd;clip-rule:evenodd;fill:url(#SVGID_00000065050157700367799270000003444924198293482654_);}
	.st40{fill-rule:evenodd;clip-rule:evenodd;fill:url(#SVGID_00000158028113592187009430000003381232238360638365_);}
	.st41{fill-rule:evenodd;clip-rule:evenodd;fill:url(#SVGID_00000148621801794858914970000016171988241265305483_);}
	.st42{fill-rule:evenodd;clip-rule:evenodd;fill:url(#SVGID_00000113346525563703725250000013751476586538141114_);}
	.st43{fill-rule:evenodd;clip-rule:evenodd;fill:url(#SVGID_00000107548087534194748770000009524967092835273656_);}
	.st44{fill-rule:evenodd;clip-rule:evenodd;fill:url(#SVGID_00000170238646296446393300000012142594403628374934_);}
	.st45{fill-rule:evenodd;clip-rule:evenodd;fill:url(#SVGID_00000055705433485202251530000000137304915976603835_);}
	.st46{fill-rule:evenodd;clip-rule:evenodd;fill:url(#SVGID_00000111151464028948195050000005908578824137494205_);}
	.st47{fill-rule:evenodd;clip-rule:evenodd;fill:url(#SVGID_00000132776030409002477770000008689191170772640662_);}
	.st48{fill:url(#SVGID_00000150805379108638251380000012922444291525755265_);}
	.st49{fill-rule:evenodd;clip-rule:evenodd;fill:url(#SVGID_00000120537748783553584740000015799104645106273445_);}
	.st50{fill-rule:evenodd;clip-rule:evenodd;fill:url(#SVGID_00000087379485886932447450000004803699987913769888_);}
	.st51{fill-rule:evenodd;clip-rule:evenodd;fill:url(#SVGID_00000101097227314151651810000011830647710259824534_);}
	.st52{fill-rule:evenodd;clip-rule:evenodd;fill:url(#SVGID_00000040556907010913633530000005752464824561340566_);}
	.st53{fill-rule:evenodd;clip-rule:evenodd;fill:url(#SVGID_00000057144284306111625230000006544197934720495782_);}
	.st54{fill-rule:evenodd;clip-rule:evenodd;fill:url(#SVGID_00000150067137318651979100000011055783689387221169_);}
	.st55{fill:url(#SVGID_00000018235852741057790970000018301688912274273936_);}
</style>
<g>
	<g>
		<linearGradient id="SVGID_1_" gradientUnits="userSpaceOnUse" x1="627.2877" y1="736.9828" x2="1080" y2="736.9828">
			<stop  offset="0" style="stop-color:#FF3C3E"/>
			<stop  offset="0.3412" style="stop-color:#E72C51"/>
			<stop  offset="1" style="stop-color:#AF067D"/>
		</linearGradient>
		<path class="st1" d="M1068.78,435.18c-18.78-25.38-54.58-30.73-79.96-11.95c-25.38,18.78-30.73,54.58-11.95,79.96
			c5.5,7.43,12.45,13.14,20.18,17.03c2.76,71.57-11.38,141.8-40.09,205.52c-31.63,70.19-81.02,132.45-145.04,179.82
			c-17.08,12.63-34.62,23.88-52.5,33.67c-13.22,7.24-26.81,13.82-40.73,19.73c-19.69-14.72-47.44-15.52-68.22-0.14
			c-25.38,18.78-30.73,54.58-11.95,79.96c18.78,25.38,54.58,30.73,79.96,11.95c11.48-8.5,18.87-20.48,21.77-33.4
			c16.79-7.01,33.2-14.91,49.16-23.65c21.02-11.51,40.94-24.2,59.59-38.01c72.65-53.75,128.75-124.51,164.73-204.39
			c33.15-73.57,49.17-154.91,45.28-237.84C1082.5,494.28,1087.02,459.82,1068.78,435.18z M698.58,1023.86
			c-10.54,7.8-25.41,5.58-33.2-4.96c-7.8-10.54-5.58-25.41,4.96-33.2c10.54-7.8,25.41-5.58,33.2,4.96
			C711.34,1001.2,709.12,1016.07,698.58,1023.86z M1036.94,488.27c-10.54,7.8-25.4,5.58-33.2-4.96c-7.8-10.54-5.58-25.41,4.96-33.2
			c10.54-7.8,25.41-5.58,33.2,4.96C1049.71,465.6,1047.48,480.47,1036.94,488.27z"/>
		
			<linearGradient id="SVGID_00000154394858888416748790000015223999616283526542_" gradientUnits="userSpaceOnUse" x1="160.2203" y1="124.3171" x2="925.0581" y2="124.3171">
			<stop  offset="0" style="stop-color:#FF3C3E"/>
			<stop  offset="0.3412" style="stop-color:#E72C51"/>
			<stop  offset="1" style="stop-color:#AF067D"/>
		</linearGradient>
		<path style="fill-rule:evenodd;clip-rule:evenodd;fill:url(#SVGID_00000154394858888416748790000015223999616283526542_);" d="
			M251.4,218.44c17.22-12.74,25.22-33.32,22.72-53.16c81.35-58.05,176.72-86.37,271.6-85.14c93.31,1.21,186.29,30.92,265.16,88.96
			c-1.01,13.21,2.55,26.83,11.05,38.32c18.78,25.38,54.58,30.73,79.96,11.95c25.38-18.78,30.73-54.58,11.95-79.96
			c-15.39-20.8-42.2-28.14-65.34-19.79C758.8,53.38,652.86,19.46,546.46,18.09c-109.72-1.42-219.78,31.7-312.88,99.56
			c-16.6-4.89-35.21-2.21-50.19,8.87c-25.38,18.78-30.73,54.58-11.95,79.96C190.22,231.87,226.02,237.22,251.4,218.44z
			 M853.76,154.33c10.54-7.8,25.4-5.58,33.2,4.96c7.8,10.54,5.58,25.4-4.96,33.2c-10.54,7.8-25.41,5.58-33.2-4.96
			C841,177,843.22,162.13,853.76,154.33z M203.28,153.4c10.54-7.8,25.41-5.58,33.2,4.96c7.8,10.54,5.58,25.41-4.96,33.2
			c-10.54,7.8-25.41,5.58-33.2-4.96C190.51,176.06,192.74,161.2,203.28,153.4z"/>
		
			<linearGradient id="SVGID_00000066476899749246315320000014903796409184862886_" gradientUnits="userSpaceOnUse" x1="0" y1="717.2222" x2="437.0671" y2="717.2222">
			<stop  offset="0" style="stop-color:#FF3C3E"/>
			<stop  offset="0.3412" style="stop-color:#E72C51"/>
			<stop  offset="1" style="stop-color:#AF067D"/>
		</linearGradient>
		<path style="fill-rule:evenodd;clip-rule:evenodd;fill:url(#SVGID_00000066476899749246315320000014903796409184862886_);" d="
			M348.08,953.32c-32.65-15.08-63.44-34.05-91.79-56.43c-31.68-25.01-60.07-54.23-84.31-86.99
			c-36.29-49.05-62.04-104.25-76.38-162.18C82.4,594.38,78.79,538.71,85.42,483.33c1.97-1.12,3.89-2.37,5.76-3.75
			c25.38-18.78,30.73-54.58,11.95-79.96s-54.58-30.73-79.96-11.95c-25.38,18.78-30.73,54.58-11.95,79.96
			c3.49,4.71,7.56,8.73,12.04,12.03c-6.96,61.76-2.74,123.73,11.95,183.06c16.34,65.98,45.54,128.69,86.66,184.26
			c27.51,37.19,59.76,70.38,95.78,98.81c32.29,25.49,67.81,47.21,105.88,64.6c1.45,8.58,4.88,16.96,10.41,24.43
			c18.78,25.38,54.58,30.73,79.96,11.95c25.38-18.78,30.73-54.58,11.95-79.96C407.61,942.16,373.3,936.41,348.08,953.32z
			 M71.3,452.7c-10.54,7.8-25.41,5.58-33.2-4.96c-7.8-10.54-5.58-25.41,4.96-33.2c10.54-7.8,25.41-5.58,33.2,4.96
			C84.06,430.04,81.84,444.91,71.3,452.7z M394.01,1019.91c-10.54,7.8-25.4,5.58-33.2-4.96c-7.8-10.54-5.58-25.41,4.96-33.2
			c10.54-7.8,25.4-5.58,33.2,4.96C406.77,997.24,404.55,1012.11,394.01,1019.91z"/>
		
			<linearGradient id="SVGID_00000036971519542984927420000010566665066601184417_" gradientUnits="userSpaceOnUse" x1="218.0945" y1="391.0604" x2="843.0055" y2="391.0604">
			<stop  offset="0" style="stop-color:#FF3C3E"/>
			<stop  offset="0.3412" style="stop-color:#E72C51"/>
			<stop  offset="1" style="stop-color:#AF067D"/>
		</linearGradient>
		<path style="fill-rule:evenodd;clip-rule:evenodd;fill:url(#SVGID_00000036971519542984927420000010566665066601184417_);" d="
			M585.22,230.85c-139.63-20.87-271.27,56.54-324.72,180.3c-3.95,9.15-7.48,18.55-10.55,28.19l0.52-0.28
			c-16.47,8.86-28.71,25.12-31.7,45.05c-5.01,33.56,18.13,64.84,51.7,69.86c33.56,5.02,64.83-18.12,69.86-51.69
			c2.42-16.24-1.74-31.94-10.48-44.39l0.36,0.53c2.85-8.16,6.16-16.08,9.89-23.74c41.4-85.04,134.46-137.29,232.96-122.56
			c98.5,14.72,172.2,91.9,186.93,185.33c15.64-8.68,34.17-12.46,53.24-9.6c10.81,1.61,20.85,5.22,29.77,10.4
			C828.09,364.25,724.84,251.72,585.22,230.85z M278.26,520.7c-15.34,0-27.78-12.44-27.78-27.78c0-15.34,12.44-27.78,27.78-27.78
			s27.78,12.44,27.78,27.78C306.04,508.27,293.6,520.7,278.26,520.7z"/>
		
			<linearGradient id="SVGID_00000041997432458072430330000000951753966836969099_" gradientUnits="userSpaceOnUse" x1="855.8151" y1="673.2554" x2="267.9985" y2="673.2554">
			<stop  offset="0" style="stop-color:#FF3C3E"/>
			<stop  offset="0.3412" style="stop-color:#E72C51"/>
			<stop  offset="1" style="stop-color:#AF067D"/>
		</linearGradient>
		<path style="fill-rule:evenodd;clip-rule:evenodd;fill:url(#SVGID_00000041997432458072430330000000951753966836969099_);" d="
			M809.87,510.34c-33.57-5.02-64.84,18.12-69.86,51.69c-2.42,16.24,1.74,31.95,10.48,44.39l-0.36-0.53
			c-2.85,8.16-6.17,16.09-9.9,23.74c-41.4,85.04-134.46,137.29-232.95,122.56c-98.5-14.73-172.21-91.91-186.93-185.33
			c-15.65,8.68-34.18,12.46-53.24,9.61c-10.81-1.62-20.85-5.22-29.77-10.4c14.92,133.98,118.17,246.51,257.79,267.38
			c139.63,20.87,271.27-56.54,324.72-180.3c3.95-9.15,7.48-18.55,10.54-28.19l-0.52,0.28c16.47-8.87,28.71-25.12,31.69-45.05
			C866.58,546.64,843.44,515.36,809.87,510.34z M802.22,595.86c-15.34,0-27.78-12.44-27.78-27.78s12.44-27.78,27.78-27.78
			s27.78,12.44,27.78,27.78S817.56,595.86,802.22,595.86z"/>
	</g>
	
		<linearGradient id="SVGID_00000014595504342375338070000005106627184913413264_" gradientUnits="userSpaceOnUse" x1="451.6046" y1="536.4791" x2="633.6738" y2="536.4791">
		<stop  offset="0" style="stop-color:#FF3C3E"/>
		<stop  offset="0.3412" style="stop-color:#E72C51"/>
		<stop  offset="1" style="stop-color:#AF067D"/>
	</linearGradient>
	
		<circle style="fill-rule:evenodd;clip-rule:evenodd;fill:url(#SVGID_00000014595504342375338070000005106627184913413264_);" cx="542.64" cy="536.48" r="91.03"/>
</g>
</svg>
