<svg width="138" height="100" viewBox="0 0 138 100" fill="none" xmlns="http://www.w3.org/2000/svg">
<path d="M1.6629 96.8642C1.14294 97.0504 0.872356 97.6228 1.05853 98.1428C1.24471 98.6627 1.81714 98.9333 2.3371 98.7471L1.6629 96.8642ZM23.6418 90.0566L23.9789 90.9981L23.6418 90.0566ZM90.6407 48.6285L89.9491 47.9062L90.6407 48.6285ZM104.958 34.918L105.649 35.6403C105.67 35.6204 105.69 35.5995 105.709 35.5779L104.958 34.918ZM134.863 1.93533C134.827 1.38419 134.351 0.966403 133.8 1.00216L124.819 1.58478C124.268 1.62053 123.85 2.09629 123.886 2.64741C123.922 3.19854 124.398 3.61634 124.949 3.58058L132.932 3.0627L133.45 11.0459C133.486 11.597 133.961 12.0148 134.512 11.9791C135.064 11.9433 135.481 11.4676 135.446 10.9164L134.863 1.93533ZM49.8508 78.3571L50.3266 79.2366L49.8508 78.3571ZM5.94407 97.4556C6.46403 97.2694 6.73462 96.697 6.54844 96.177C6.36226 95.6571 5.78983 95.3865 5.26987 95.5727L5.94407 97.4556ZM19.6978 90.4066C19.1778 90.5928 18.9072 91.1652 19.0934 91.6852C19.2796 92.2052 19.852 92.4757 20.372 92.2896L19.6978 90.4066ZM26.2396 90.1724C26.7572 89.9796 27.0205 89.4038 26.8278 88.8863C26.635 88.3687 26.0592 88.1054 25.5416 88.2981L26.2396 90.1724ZM34.3804 84.7489C33.8733 84.9676 33.6395 85.556 33.8582 86.0632C34.0769 86.5703 34.6653 86.8041 35.1725 86.5854L34.3804 84.7489ZM39.5679 84.6233C40.0693 84.3918 40.2881 83.7977 40.0566 83.2962C39.8251 82.7948 39.231 82.576 38.7295 82.8075L39.5679 84.6233ZM47.2733 78.5973C46.7842 78.8539 46.5958 79.4583 46.8524 79.9474C47.109 80.4365 47.7134 80.6249 48.2025 80.3683L47.2733 78.5973ZM52.8034 77.8729C53.2852 77.6029 53.4569 76.9935 53.1869 76.5117C52.917 76.0299 52.3075 75.8582 51.8257 76.1281L52.8034 77.8729ZM61.4195 70.3707C60.9546 70.6688 60.8195 71.2874 61.1176 71.7523C61.4158 72.2172 62.0344 72.3523 62.4992 72.0542L61.4195 70.3707ZM67.213 68.931C67.6688 68.6191 67.7855 67.9968 67.4737 67.541C67.1618 67.0852 66.5395 66.9685 66.0837 67.2803L67.213 68.931ZM75.1258 60.6902C74.6893 61.0287 74.6099 61.6568 74.9483 62.0933C75.2867 62.5297 75.9149 62.6092 76.3513 62.2707L75.1258 60.6902ZM80.7678 58.7396C81.194 58.3883 81.2547 57.7581 80.9034 57.3319C80.5522 56.9057 79.9219 56.845 79.4958 57.1963L80.7678 58.7396ZM87.9141 49.8261C87.5096 50.2021 87.4865 50.8348 87.8625 51.2393C88.2385 51.6439 88.8713 51.667 89.2758 51.291L87.9141 49.8261ZM93.7185 47.0656C94.1174 46.6837 94.1311 46.0506 93.7491 45.6518C93.3671 45.2529 92.7341 45.2392 92.3352 45.6211L93.7185 47.0656ZM101.88 36.4809C101.481 36.8629 101.467 37.4959 101.849 37.8948C102.231 38.2936 102.864 38.3073 103.263 37.9254L101.88 36.4809ZM108.118 32.8347C108.483 32.4197 108.442 31.7879 108.027 31.4235C107.612 31.0591 106.98 31.1001 106.615 31.515L108.118 32.8347ZM116.251 20.5424C115.887 20.9574 115.928 21.5892 116.343 21.9536C116.758 22.318 117.389 22.2771 117.754 21.8621L116.251 20.5424ZM122.572 16.3757C122.936 15.9608 122.895 15.3289 122.48 14.9645C122.065 14.6001 121.433 14.6411 121.069 15.056L122.572 16.3757ZM130.705 4.08338C130.34 4.49837 130.381 5.1302 130.796 5.49463C131.211 5.85905 131.843 5.81806 132.208 5.40307L130.705 4.08338ZM2.3371 98.7471L5.94407 97.4556L5.26987 95.5727L1.6629 96.8642L2.3371 98.7471ZM20.372 92.2896L23.9789 90.9981L23.3047 89.1151L19.6978 90.4066L20.372 92.2896ZM23.9789 90.9981C24.7343 90.7276 25.4879 90.4523 26.2396 90.1724L25.5416 88.2981C24.7978 88.5752 24.0522 88.8475 23.3047 89.1151L23.9789 90.9981ZM35.1725 86.5854C36.6458 85.9499 38.1111 85.2959 39.5679 84.6233L38.7295 82.8075C37.2881 83.473 35.8383 84.1202 34.3804 84.7489L35.1725 86.5854ZM48.2025 80.3683C48.9128 79.9956 49.6209 79.6184 50.3266 79.2366L49.375 77.4775C48.6767 77.8552 47.9761 78.2285 47.2733 78.5973L48.2025 80.3683ZM50.3266 79.2366C51.1558 78.7881 51.9814 78.3335 52.8034 77.8729L51.8257 76.1281C51.0124 76.5839 50.1955 77.0337 49.375 77.4775L50.3266 79.2366ZM62.4992 72.0542C64.0862 71.0364 65.6576 69.9952 67.213 68.931L66.0837 67.2803C64.5446 68.3333 62.9897 69.3636 61.4195 70.3707L62.4992 72.0542ZM76.3513 62.2707C77.8407 61.1159 79.313 59.9387 80.7678 58.7396L79.4958 57.1963C78.0563 58.3827 76.5994 59.5475 75.1258 60.6902L76.3513 62.2707ZM89.2758 51.291C89.9659 50.6495 90.6515 50.0027 91.3323 49.3507L89.9491 47.9062C89.2754 48.5514 88.597 49.1913 87.9141 49.8261L89.2758 51.291ZM91.3323 49.3507L93.7185 47.0656L92.3352 45.6211L89.9491 47.9062L91.3323 49.3507ZM103.263 37.9254L105.649 35.6403L104.266 34.1958L101.88 36.4809L103.263 37.9254ZM105.709 35.5779L108.118 32.8347L106.615 31.515L104.206 34.2582L105.709 35.5779ZM117.754 21.8621L122.572 16.3757L121.069 15.056L116.251 20.5424L117.754 21.8621ZM132.208 5.40307L134.617 2.65991L133.114 1.34021L130.705 4.08338L132.208 5.40307ZM1.3258 95.9227C0.285878 96.2951 -0.255289 97.44 0.117064 98.4799C0.489417 99.5198 1.63429 100.061 2.6742 99.6886L1.3258 95.9227ZM23.6418 90.0566L24.316 91.9395L23.6418 90.0566ZM90.6407 48.6285L89.2574 47.184L90.6407 48.6285ZM104.958 34.918L106.341 36.3625C106.383 36.3227 106.423 36.281 106.461 36.2377L104.958 34.918ZM135.861 1.87059C135.789 0.768338 134.838 -0.0672532 133.736 0.00425529L115.773 1.1695C114.671 1.24099 113.836 2.19251 113.907 3.29477C113.979 4.39702 114.93 5.2326 116.032 5.1611L131.999 4.12533L133.035 20.0918C133.106 21.194 134.058 22.0296 135.16 21.9581C136.262 21.8866 137.098 20.9351 137.026 19.8328L135.861 1.87059ZM49.8508 78.3571L50.8024 80.1162L49.8508 78.3571ZM6.28118 98.3971C7.32109 98.0247 7.86226 96.8799 7.48991 95.8399C7.11755 94.8 5.97268 94.2589 4.93277 94.6312L6.28118 98.3971ZM19.3607 89.4652C18.3207 89.8375 17.7796 90.9824 18.1519 92.0223C18.5243 93.0622 19.6691 93.6034 20.7091 93.231L19.3607 89.4652ZM26.5887 91.1095C27.6238 90.724 28.1504 89.5724 27.7649 88.5373C27.3794 87.5021 26.2278 86.9755 25.1926 87.361L26.5887 91.1095ZM33.9844 83.8307C32.9701 84.2681 32.5025 85.4449 32.94 86.4592C33.3774 87.4735 34.5542 87.9411 35.5685 87.5036L33.9844 83.8307ZM39.987 85.5312C40.9899 85.0682 41.4275 83.8799 40.9645 82.8771C40.5015 81.8742 39.3132 81.4366 38.3104 81.8996L39.987 85.5312ZM46.8087 77.7118C45.8306 78.225 45.4537 79.4339 45.9669 80.412C46.4801 81.3901 47.689 81.767 48.6671 81.2538L46.8087 77.7118ZM53.2922 78.7453C54.2558 78.2053 54.5993 76.9865 54.0593 76.0229C53.5194 75.0593 52.3005 74.7158 51.3369 75.2558L53.2922 78.7453ZM60.8796 69.5289C59.9499 70.1252 59.6796 71.3624 60.2759 72.2921C60.8722 73.2219 62.1093 73.4922 63.0391 72.8959L60.8796 69.5289ZM67.7777 69.7563C68.6893 69.1325 68.9227 67.8879 68.299 66.9763C67.6752 66.0647 66.4306 65.8313 65.519 66.455L67.7777 69.7563ZM74.513 59.9C73.6401 60.5768 73.4812 61.8332 74.1581 62.706C74.8349 63.5789 76.0912 63.7378 76.9641 63.061L74.513 59.9ZM81.4038 59.5113C82.2562 58.8087 82.3777 57.5482 81.6751 56.6959C80.9726 55.8435 79.7121 55.7221 78.8597 56.4246L81.4038 59.5113ZM87.2333 49.0936C86.4243 49.8456 86.378 51.1111 87.1301 51.9202C87.8821 52.7292 89.1475 52.7754 89.9566 52.0234L87.2333 49.0936ZM94.4102 47.7879C95.2079 47.0239 95.2353 45.7579 94.4714 44.9601C93.7074 44.1623 92.4414 44.1349 91.6436 44.8989L94.4102 47.7879ZM101.188 35.7586C100.391 36.5226 100.363 37.7886 101.127 38.5864C101.891 39.3842 103.157 39.4116 103.955 38.6476L101.188 35.7586ZM108.87 33.4946C109.598 32.6646 109.516 31.4009 108.686 30.6721C107.856 29.9432 106.593 30.0252 105.864 30.8552L108.87 33.4946ZM115.5 19.8825C114.771 20.7125 114.853 21.9762 115.683 22.705C116.513 23.4339 117.776 23.3519 118.505 22.5219L115.5 19.8825ZM123.323 17.0356C124.052 16.2056 123.97 14.9419 123.14 14.2131C122.31 13.4842 121.046 13.5662 120.318 14.3962L123.323 17.0356ZM129.953 3.42353C129.225 4.2535 129.306 5.51718 130.136 6.24603C130.966 6.97487 132.23 6.89289 132.959 6.06293L129.953 3.42353ZM2.6742 99.6886L6.28118 98.3971L4.93277 94.6312L1.3258 95.9227L2.6742 99.6886ZM20.7091 93.231L24.316 91.9395L22.9676 88.1736L19.3607 89.4652L20.7091 93.231ZM24.316 91.9395C25.0754 91.6676 25.833 91.3909 26.5887 91.1095L25.1926 87.361C24.4528 87.6366 23.7111 87.9074 22.9676 88.1736L24.316 91.9395ZM35.5685 87.5036C37.0496 86.8648 38.5226 86.2073 39.987 85.5312L38.3104 81.8996C36.8766 82.5615 35.4345 83.2053 33.9844 83.8307L35.5685 87.5036ZM48.6671 81.2538C49.3812 80.8792 50.093 80.4999 50.8024 80.1162L48.8992 76.5979C48.2047 76.9737 47.5078 77.345 46.8087 77.7118L48.6671 81.2538ZM50.8024 80.1162C51.6359 79.6653 52.4659 79.2083 53.2922 78.7453L51.3369 75.2558C50.5279 75.7091 49.7153 76.1565 48.8992 76.5979L50.8024 80.1162ZM63.0391 72.8959C64.6344 71.8728 66.2141 70.8261 67.7777 69.7563L65.519 66.455C63.9881 67.5024 62.4415 68.5272 60.8796 69.5289L63.0391 72.8959ZM76.9641 63.061C78.4613 61.9 79.9414 60.7167 81.4038 59.5113L78.8597 56.4246C77.4279 57.6048 75.9788 58.7633 74.513 59.9L76.9641 63.061ZM89.9566 52.0234C90.6504 51.3786 91.3395 50.7284 92.024 50.0729L89.2574 47.184C88.5873 47.8257 87.9126 48.4622 87.2333 49.0936L89.9566 52.0234ZM92.024 50.0729L94.4102 47.7879L91.6436 44.8989L89.2574 47.184L92.024 50.0729ZM103.955 38.6476L106.341 36.3625L103.575 33.4736L101.188 35.7586L103.955 38.6476ZM106.461 36.2377L108.87 33.4946L105.864 30.8552L103.455 33.5983L106.461 36.2377ZM118.505 22.5219L123.323 17.0356L120.318 14.3962L115.5 19.8825L118.505 22.5219ZM132.959 6.06293L135.368 3.31975L132.362 0.680365L129.953 3.42353L132.959 6.06293Z" fill="#A4C4E1"/>
</svg>
