<svg width="136" height="107" viewBox="0 0 136 107" fill="none" xmlns="http://www.w3.org/2000/svg">
<path d="M2.79046 1.38748C2.45217 0.950924 1.82404 0.871259 1.38748 1.20954C0.950924 1.54783 0.871259 2.17596 1.20954 2.61252L2.79046 1.38748ZM16.0802 20.1704L15.2897 20.783L16.0802 20.1704ZM76.248 71.0131L76.72 70.1316L76.248 71.0131ZM93.7233 80.371L93.2512 81.2525C93.2766 81.2661 93.3026 81.2786 93.329 81.29L93.7233 80.371ZM134.356 98.5696C134.869 98.3646 135.118 97.7827 134.913 97.2699L131.573 88.9125C131.368 88.3997 130.786 88.1501 130.274 88.355C129.761 88.56 129.511 89.1419 129.716 89.6547L132.685 97.0835L125.256 100.052C124.743 100.257 124.494 100.839 124.699 101.352C124.904 101.865 125.485 102.114 125.998 101.909L134.356 98.5696ZM35.3327 41.4573L34.6441 42.1825L35.3327 41.4573ZM3.55624 5.64093C3.89453 6.07748 4.52266 6.15715 4.95922 5.81886C5.39578 5.48058 5.47544 4.85244 5.13715 4.41589L3.55624 5.64093ZM14.524 16.5295C14.1857 16.093 13.5575 16.0133 13.121 16.3516C12.6844 16.6899 12.6048 17.318 12.943 17.7546L14.524 16.5295ZM16.776 22.676C17.1197 23.1083 17.7488 23.18 18.1811 22.8362C18.6133 22.4924 18.685 21.8633 18.3412 21.4311L16.776 22.676ZM24.4572 28.7329C24.092 28.3186 23.46 28.2788 23.0458 28.6441C22.6315 29.0093 22.5918 29.6412 22.957 30.0555L24.4572 28.7329ZM26.1858 33.6254C26.5614 34.0303 27.1941 34.054 27.599 33.6784C28.0039 33.3028 28.0276 32.6701 27.652 32.2652L26.1858 33.6254ZM34.3048 39.0814C33.9091 38.6961 33.276 38.7045 32.8907 39.1001C32.5053 39.4958 32.5137 40.1289 32.9094 40.5142L34.3048 39.0814ZM36.7089 44.114C37.115 44.4883 37.7476 44.4625 38.1219 44.0564C38.4962 43.6503 38.4704 43.0177 38.0643 42.6434L36.7089 44.114ZM46.5138 49.9779C46.0861 49.6285 45.4561 49.6918 45.1067 50.1195C44.7572 50.5472 44.8206 51.1772 45.2483 51.5266L46.5138 49.9779ZM49.6796 55.039C50.1175 55.3756 50.7453 55.2935 51.0819 54.8556C51.4185 54.4178 51.3364 53.7899 50.8985 53.4534L49.6796 55.039ZM59.9684 60.0052C59.5113 59.6952 58.8895 59.8145 58.5795 60.2717C58.2696 60.7288 58.3889 61.3506 58.846 61.6605L59.9684 60.0052ZM63.573 64.7638C64.0391 65.06 64.6571 64.9222 64.9533 64.4561C65.2495 63.9899 65.1117 63.3719 64.6456 63.0757L63.573 64.7638ZM74.2636 68.7926C73.7807 68.5246 73.172 68.6989 72.9041 69.1819C72.6361 69.6648 72.8104 70.2735 73.2934 70.5415L74.2636 68.7926ZM78.6884 73.4543C79.1753 73.715 79.7814 73.5317 80.0421 73.0448C80.3028 72.558 80.1195 71.9519 79.6326 71.6912L78.6884 73.4543ZM91.2828 77.9298C90.7959 77.669 90.1899 77.8524 89.9291 78.3393C89.6684 78.8261 89.8518 79.4322 90.3386 79.6929L91.2828 77.9298ZM96.6842 82.7291C97.1917 82.9469 97.7797 82.7119 97.9974 82.2043C98.2151 81.6968 97.9801 81.1088 97.4726 80.8911L96.6842 82.7291ZM110.893 86.6478C110.385 86.4301 109.797 86.665 109.58 87.1726C109.362 87.6802 109.597 88.2681 110.105 88.4858L110.893 86.6478ZM116.815 91.3642C117.322 91.5819 117.91 91.3469 118.128 90.8394C118.346 90.3318 118.111 89.7438 117.603 89.5261L116.815 91.3642ZM131.024 95.2828C130.516 95.0651 129.928 95.3 129.71 95.8076C129.493 96.3152 129.728 96.9031 130.235 97.1208L131.024 95.2828ZM1.20954 2.61252L3.55624 5.64093L5.13715 4.41589L2.79046 1.38748L1.20954 2.61252ZM12.943 17.7546L15.2897 20.783L16.8706 19.5579L14.524 16.5295L12.943 17.7546ZM15.2897 20.783C15.7812 21.4172 16.2766 22.0482 16.776 22.676L18.3412 21.4311C17.8471 20.8099 17.3569 20.1855 16.8706 19.5579L15.2897 20.783ZM22.957 30.0555C24.0181 31.2591 25.0945 32.4491 26.1858 33.6254L27.652 32.2652C26.5722 31.1013 25.5072 29.9237 24.4572 28.7329L22.957 30.0555ZM32.9094 40.5142C33.484 41.0739 34.0623 41.63 34.6441 42.1825L36.0213 40.7322C35.4456 40.1855 34.8734 39.6352 34.3048 39.0814L32.9094 40.5142ZM34.6441 42.1825C35.3277 42.8316 36.016 43.4755 36.7089 44.114L38.0643 42.6434C37.3787 42.0115 36.6977 41.3744 36.0213 40.7322L34.6441 42.1825ZM45.2483 51.5266C46.7081 52.7195 48.1854 53.8905 49.6796 55.039L50.8985 53.4534C49.42 52.3169 47.9583 51.1583 46.5138 49.9779L45.2483 51.5266ZM58.846 61.6605C60.4059 62.7182 61.9818 63.7527 63.573 64.7638L64.6456 63.0757C63.0711 62.0753 61.5119 61.0517 59.9684 60.0052L58.846 61.6605ZM73.2934 70.5415C74.1173 70.9986 74.9448 71.4497 75.7759 71.8947L76.72 70.1316C75.8977 69.6912 75.0789 69.2449 74.2636 68.7926L73.2934 70.5415ZM75.7759 71.8947L78.6884 73.4543L79.6326 71.6912L76.72 70.1316L75.7759 71.8947ZM90.3386 79.6929L93.2512 81.2525L94.1953 79.4894L91.2828 77.9298L90.3386 79.6929ZM93.329 81.29L96.6842 82.7291L97.4726 80.8911L94.1175 79.4519L93.329 81.29ZM110.105 88.4858L116.815 91.3642L117.603 89.5261L110.893 86.6478L110.105 88.4858ZM130.235 97.1208L133.59 98.56L134.379 96.722L131.024 95.2828L130.235 97.1208ZM3.58091 0.77496C2.90434 -0.0981524 1.64807 -0.257481 0.77496 0.41909C-0.0981524 1.09566 -0.257481 2.35193 0.41909 3.22504L3.58091 0.77496ZM16.0802 20.1704L14.4993 21.3955L16.0802 20.1704ZM76.248 71.0131L77.1921 69.25L76.248 71.0131ZM93.7233 80.371L92.7791 82.1341C92.8299 82.1613 92.8819 82.1863 92.9348 82.209L93.7233 80.371ZM134.727 99.4982C135.752 99.0883 136.252 97.9245 135.842 96.8988L129.162 80.1841C128.752 79.1584 127.588 78.6592 126.563 79.0691C125.537 79.479 125.038 80.6428 125.448 81.6685L131.385 96.526L116.528 102.463C115.502 102.873 115.003 104.037 115.413 105.063C115.823 106.089 116.986 106.588 118.012 106.178L134.727 99.4982ZM35.3327 41.4573L33.9555 42.9076L35.3327 41.4573ZM2.76579 6.25345C3.44236 7.12656 4.69863 7.28589 5.57174 6.60932C6.44485 5.93275 6.60418 4.67648 5.92761 3.80337L2.76579 6.25345ZM15.3144 15.917C14.6378 15.0439 13.3816 14.8846 12.5085 15.5611C11.6353 16.2377 11.476 17.494 12.1526 18.3671L15.3144 15.917ZM15.9933 23.2985C16.6809 24.163 17.9391 24.3064 18.8036 23.6188C19.668 22.9312 19.8114 21.6731 19.1239 20.8086L15.9933 23.2985ZM25.2073 28.0715C24.4768 27.243 23.213 27.1635 22.3844 27.894C21.5559 28.6245 21.4764 29.8883 22.2069 30.7168L25.2073 28.0715ZM25.4527 34.3056C26.2039 35.1153 27.4693 35.1628 28.2791 34.4115C29.0889 33.6603 29.1363 32.3948 28.3851 31.5851L25.4527 34.3056ZM35.0025 38.3651C34.2112 37.5944 32.945 37.6111 32.1743 38.4024C31.4036 39.1937 31.4203 40.4599 32.2116 41.2306L35.0025 38.3651ZM36.0312 44.8494C36.8434 45.598 38.1087 45.5464 38.8572 44.7341C39.6058 43.9219 39.5542 42.6566 38.742 41.9081L36.0312 44.8494ZM47.1465 49.2036C46.2912 48.5046 45.0313 48.6314 44.3323 49.4868C43.6334 50.3421 43.7602 51.602 44.6155 52.301L47.1465 49.2036ZM49.0702 55.8319C49.9459 56.505 51.2016 56.3408 51.8747 55.4651C52.5479 54.5893 52.3837 53.3337 51.5079 52.6605L49.0702 55.8319ZM60.5296 59.1775C59.6154 58.5576 58.3717 58.7962 57.7518 59.7105C57.132 60.6247 57.3706 61.8684 58.2849 62.4882L60.5296 59.1775ZM63.0367 65.6078C63.969 66.2002 65.205 65.9246 65.7973 64.9924C66.3897 64.0601 66.1142 62.8241 65.1819 62.2317L63.0367 65.6078ZM74.7488 67.9181C73.7829 67.3823 72.5655 67.7309 72.0296 68.6967C71.4938 69.6626 71.8424 70.88 72.8082 71.4159L74.7488 67.9181ZM78.2164 74.3359C79.1901 74.8573 80.4022 74.4906 80.9236 73.5169C81.4451 72.5432 81.0784 71.3311 80.1046 70.8096L78.2164 74.3359ZM91.7548 77.0482C90.7811 76.5268 89.569 76.8934 89.0476 77.8672C88.5262 78.8409 88.8928 80.053 89.8666 80.5744L91.7548 77.0482ZM96.2899 83.6482C97.3051 84.0836 98.481 83.6137 98.9164 82.5985C99.3518 81.5834 98.8819 80.4075 97.8668 79.9721L96.2899 83.6482ZM111.287 85.7288C110.272 85.2933 109.096 85.7633 108.661 86.7784C108.225 87.7935 108.695 88.9694 109.71 89.4048L111.287 85.7288ZM116.421 92.2832C117.436 92.7186 118.612 92.2487 119.047 91.2336C119.482 90.2184 119.013 89.0425 117.997 88.6071L116.421 92.2832ZM131.418 94.3638C130.403 93.9283 129.227 94.3983 128.791 95.4134C128.356 96.4285 128.826 97.6044 129.841 98.0398L131.418 94.3638ZM0.41909 3.22504L2.76579 6.25345L5.92761 3.80337L3.58091 0.77496L0.41909 3.22504ZM12.1526 18.3671L14.4993 21.3955L17.6611 18.9454L15.3144 15.917L12.1526 18.3671ZM14.4993 21.3955C14.9933 22.0331 15.4914 22.6674 15.9933 23.2985L19.1239 20.8086C18.6324 20.1907 18.1448 19.5696 17.6611 18.9454L14.4993 21.3955ZM22.2069 30.7168C23.2736 31.9267 24.3556 33.1231 25.4527 34.3056L28.3851 31.5851C27.311 30.4274 26.2517 29.2561 25.2073 28.0715L22.2069 30.7168ZM32.2116 41.2306C32.7893 41.7932 33.3706 42.3523 33.9555 42.9076L36.7099 40.007C36.1372 39.4632 35.5681 38.9159 35.0025 38.3651L32.2116 41.2306ZM33.9555 42.9076C34.6428 43.5602 35.3347 44.2074 36.0312 44.8494L38.742 41.9081C38.0601 41.2796 37.3827 40.6459 36.7099 40.007L33.9555 42.9076ZM44.6155 52.301C46.0831 53.5002 47.5681 54.6773 49.0702 55.8319L51.5079 52.6605C50.0373 51.5301 48.5833 50.3777 47.1465 49.2036L44.6155 52.301ZM58.2849 62.4882C59.853 63.5514 61.4371 64.5914 63.0367 65.6078L65.1819 62.2317C63.6158 61.2366 62.0649 60.2184 60.5296 59.1775L58.2849 62.4882ZM72.8082 71.4159C73.6365 71.8754 74.4684 72.3289 75.3038 72.7762L77.1921 69.25C76.3742 68.812 75.5597 68.368 74.7488 67.9181L72.8082 71.4159ZM75.3038 72.7762L78.2164 74.3359L80.1046 70.8096L77.1921 69.25L75.3038 72.7762ZM89.8666 80.5744L92.7791 82.1341L94.6674 78.6078L91.7548 77.0482L89.8666 80.5744ZM92.9348 82.209L96.2899 83.6482L97.8668 79.9721L94.5117 78.5329L92.9348 82.209ZM109.71 89.4048L116.421 92.2832L117.997 88.6071L111.287 85.7288L109.71 89.4048ZM129.841 98.0398L133.196 99.479L134.773 95.8029L131.418 94.3638L129.841 98.0398Z" fill="#A4C4E1"/>
</svg>
