<svg width="22" height="22" viewBox="0 0 22 22" fill="none" xmlns="http://www.w3.org/2000/svg">
<path d="M16.8807 18.2966C15.1219 19.4121 13.0814 20.0029 10.9987 19.9996C5.60669 19.9996 1.12069 16.1196 0.179688 10.9996C0.609717 8.6703 1.78132 6.54247 3.51969 4.93358L0.390687 1.80758L1.80569 0.392578L21.6047 20.1926L20.1897 21.6066L16.8797 18.2966H16.8807ZM4.93369 6.34958C3.57469 7.58517 2.628 9.20836 2.22169 10.9996C2.53398 12.366 3.16095 13.6407 4.05269 14.7222C4.94443 15.8036 6.07631 16.662 7.35824 17.2289C8.64017 17.7958 10.0367 18.0556 11.4368 17.9877C12.8368 17.9198 14.2017 17.5259 15.4227 16.8376L13.3947 14.8096C12.5314 15.3534 11.5089 15.5877 10.4949 15.474C9.48096 15.3604 8.53573 14.9055 7.81426 14.184C7.09279 13.4625 6.63791 12.5173 6.52425 11.5033C6.41058 10.4894 6.64487 9.46689 7.18869 8.60358L4.93369 6.34958ZM11.9127 13.3276L8.67069 10.0856C8.49275 10.5385 8.45088 11.0335 8.55019 11.5099C8.64951 11.9863 8.8857 12.4234 9.22981 12.7675C9.57391 13.1116 10.011 13.3478 10.4873 13.4471C10.9637 13.5464 11.4588 13.5045 11.9117 13.3266L11.9127 13.3276ZM19.8057 15.5916L18.3747 14.1616C19.0432 13.2089 19.5191 12.1348 19.7757 10.9996C19.5039 9.8093 18.993 8.68672 18.2738 7.70007C17.5547 6.71342 16.6425 5.88331 15.5926 5.26018C14.5426 4.63706 13.377 4.23395 12.1664 4.07534C10.9559 3.91674 9.72569 4.00596 8.55069 4.33758L6.97269 2.75958C8.21969 2.26958 9.57869 1.99958 10.9987 1.99958C16.3907 1.99958 20.8767 5.87958 21.8177 10.9996C21.5113 12.6653 20.8225 14.2372 19.8057 15.5916ZM10.7217 6.50758C11.3582 6.46824 11.9958 6.56464 12.5922 6.7904C13.1887 7.01615 13.7303 7.36609 14.1812 7.81703C14.6322 8.26797 14.9821 8.8096 15.2079 9.40604C15.4336 10.0025 15.53 10.6401 15.4907 11.2766L10.7207 6.50758H10.7217Z" fill="#207FF1"/>
</svg>
