<svg width="31" height="37" viewBox="0 0 31 37" fill="none" xmlns="http://www.w3.org/2000/svg">
<path d="M26.5 36.8333H4.5C2.47496 36.8333 0.833336 35.1917 0.833336 33.1666V3.83329C0.833336 1.80825 2.47496 0.166626 4.5 0.166626H17.3333C17.3533 0.167488 17.3731 0.171191 17.392 0.177626C17.41 0.183163 17.4283 0.186848 17.447 0.188626C17.6087 0.198984 17.7684 0.230426 17.9218 0.282126L17.9732 0.298626C18.0148 0.312706 18.0551 0.329866 18.0942 0.349959C18.2938 0.438729 18.4759 0.562956 18.6313 0.716626L29.6313 11.7166C29.785 11.8721 29.9093 12.0541 29.998 12.2538C30.0163 12.2941 30.0292 12.3363 30.0438 12.3785L30.0603 12.4261C30.1115 12.579 30.1417 12.7381 30.1502 12.8991C30.1531 12.916 30.1573 12.9325 30.163 12.9486C30.1663 12.9655 30.1674 12.9828 30.1668 13V33.1666C30.1668 35.1917 28.5251 36.8333 26.5 36.8333ZM4.5 3.83329V33.1666H26.5V14.8333H17.3333C16.3208 14.8333 15.5 14.0125 15.5 13V3.83329H4.5ZM19.1667 6.42563V11.1666H23.9077L19.1667 6.42563Z" fill="#38C17F"/>
</svg>
