<svg width="21" height="21" viewBox="0 0 21 21" fill="none" xmlns="http://www.w3.org/2000/svg">
<path d="M8.7501 19.9999H2.91705C1.76655 19.9988 0.834149 19.0664 0.833049 17.9159V8.21588C0.0162593 7.63629 -0.238041 6.53744 0.241049 5.65791C1.14105 4.04991 2.05905 2.46491 2.96205 0.945913C3.32422 0.352913 3.97123 -0.00628717 4.66605 -0.000167169C5.08957 0.00414283 5.50154 0.138553 5.84605 0.384913L5.87005 0.399913C6.28205 0.639913 10.2621 3.00891 13.4611 4.91191L16.3001 6.59991L16.4301 6.67691C18.6481 7.98791 19.1471 8.28588 19.1751 8.30488C19.9916 8.88298 20.2427 9.98268 19.7581 10.8579C18.8751 12.4349 17.9581 14.0199 17.0371 15.5699C16.6796 16.1565 16.044 16.5163 15.3571 16.5209C15.2225 16.521 15.0883 16.5059 14.9571 16.4759C14.8411 16.5449 14.2011 16.9559 13.3901 17.4759C11.9471 18.4009 9.9751 19.6659 9.7471 19.7829C9.4394 19.9413 9.0956 20.0161 8.7501 19.9999ZM2.50005 11.0299V17.9159C2.50005 18.1462 2.68675 18.3329 2.91705 18.3329H6.74005C5.28705 15.8799 3.86105 13.4219 2.50005 11.0299ZM3.85805 10.0299C4.25805 10.7169 8.5741 18.1619 8.6101 18.2119C8.6669 18.2858 8.7549 18.329 8.8481 18.3289C8.8972 18.3289 8.9456 18.317 8.9891 18.2939C9.1241 18.2179 13.1831 15.6099 13.2231 15.5839C12.9091 15.3989 10.6371 14.0449 8.2311 12.6119L3.83805 9.99988L3.84505 10.0109L3.85505 10.0279V10.0339L3.85805 10.0299ZM4.33205 1.89991C3.52405 3.19991 1.71605 6.42791 1.69205 6.48691C1.63276 6.62856 1.68536 6.79229 1.81605 6.87291C1.94905 6.95191 15.1701 14.8289 15.2961 14.8489C15.312 14.8501 15.3281 14.8501 15.3441 14.8489C15.4527 14.8493 15.5536 14.7928 15.6101 14.6999C16.4241 13.3329 18.2991 10.0429 18.3041 10.0329C18.362 9.89068 18.3092 9.72738 18.1791 9.64588C18.0521 9.56988 4.85605 1.72791 4.77105 1.69091C4.73242 1.67465 4.69097 1.66615 4.64905 1.66591C4.54374 1.66649 4.44574 1.71981 4.38805 1.80791L4.38105 1.81991L4.37305 1.83191L4.36105 1.85191V1.85691L4.34605 1.88091L4.33105 1.89991H4.33205ZM5.68505 7.38991C4.7656 7.38936 4.02042 6.64403 4.02006 5.72458C4.01969 4.80512 4.76427 4.0592 5.68372 4.05791C6.60318 4.05663 7.34984 4.80046 7.35205 5.71991C7.35095 6.64012 6.60525 7.38581 5.68505 7.38691V7.38991Z" fill="#207FF1"/>
</svg>
