<svg width="30" height="30" viewBox="0 0 30 30" fill="none" xmlns="http://www.w3.org/2000/svg">
<path fill-rule="evenodd" clip-rule="evenodd" d="M16.6441 0.00146484C19.2567 0.00673083 19.8307 0.0285966 21.1845 0.0903652C22.781 0.163186 23.8714 0.416778 24.8255 0.787609C25.8119 1.17088 26.6484 1.68378 27.4824 2.51768C28.3163 3.35163 28.8292 4.18815 29.2125 5.17453C29.5833 6.12864 29.8369 7.21904 29.9097 8.81562C29.9743 10.2309 29.9952 10.794 29.9992 13.7251V16.2751C29.9952 19.2062 29.9743 19.7693 29.9097 21.1846C29.8369 22.7812 29.5833 23.8716 29.2125 24.8257C28.8292 25.8121 28.3163 26.6486 27.4824 27.4825C26.6484 28.3164 25.8119 28.8293 24.8255 29.2126C23.8714 29.5834 22.781 29.837 21.1845 29.9098C19.7692 29.9744 19.2061 29.9954 16.275 29.9993H13.725C10.7938 29.9954 10.2308 29.9744 8.8155 29.9098C7.21892 29.837 6.12852 29.5834 5.17441 29.2126C4.18802 28.8293 3.35151 28.3164 2.51756 27.4825C1.68366 26.6486 1.17076 25.8121 0.787487 24.8257C0.416656 23.8716 0.163064 22.7812 0.0902431 21.1846C0.0284745 19.8308 0.00660876 19.2568 0.00134277 16.6443V13.356C0.00660876 10.7434 0.0284745 10.1694 0.0902431 8.81562C0.163064 7.21904 0.416656 6.12864 0.787487 5.17453C1.17076 4.18815 1.68366 3.35163 2.51756 2.51768C3.35151 1.68378 4.18802 1.17088 5.17441 0.787609C6.12852 0.416778 7.21892 0.163186 8.8155 0.0903652C10.1693 0.0285966 10.7433 0.00673083 13.3559 0.00146484H16.6441ZM16.2973 2.70353H13.7027C10.865 2.70729 10.3306 2.72676 8.93869 2.79026C7.4762 2.85695 6.68197 3.10132 6.15341 3.30674C5.45324 3.57885 4.95356 3.90389 4.4287 4.42882C3.90377 4.95369 3.57872 5.45337 3.30661 6.15353C3.10119 6.68209 2.85683 7.47633 2.79014 8.93881C2.72664 10.3307 2.70717 10.8651 2.70341 13.7028V16.2975C2.70717 19.1351 2.72664 19.6695 2.79014 21.0614C2.85683 22.5239 3.10119 23.3181 3.30661 23.8467C3.57872 24.5468 3.90383 25.0465 4.4287 25.5714C4.95356 26.0963 5.45324 26.4214 6.15341 26.6935C6.68197 26.8989 7.4762 27.1432 8.93869 27.2099C10.5202 27.2821 10.9945 27.2974 15 27.2974L15.464 27.2973C19.0452 27.2961 19.5431 27.2792 21.0613 27.2099C22.5237 27.1432 23.318 26.8989 23.8465 26.6935C24.5467 26.4214 25.0464 26.0963 25.5713 25.5714C26.0962 25.0465 26.4212 24.5468 26.6933 23.8467C26.8988 23.3181 27.1431 22.5239 27.2098 21.0614C27.282 19.4797 27.2973 19.0053 27.2973 15.0001L27.2972 14.5362C27.296 10.9552 27.2791 10.4572 27.2098 8.93881C27.1431 7.47633 26.8988 6.68209 26.6933 6.15353C26.4212 5.45337 26.0962 4.95369 25.5713 4.42882C25.0464 3.90389 24.5467 3.57885 23.8465 3.30674C23.318 3.10132 22.5237 2.85695 21.0613 2.79026C19.6694 2.72676 19.1349 2.70729 16.2973 2.70353ZM15 7.2974C19.2541 7.2974 22.7027 10.746 22.7027 15.0001C22.7027 19.2542 19.2541 22.7028 15 22.7028C10.7459 22.7028 7.29728 19.2542 7.29728 15.0001C7.29728 10.746 10.7459 7.2974 15 7.2974ZM15 10.0001C12.2385 10.0001 9.99998 12.2387 9.99998 15.0001C9.99998 17.7615 12.2385 20.0001 15 20.0001C17.7614 20.0001 20 17.7615 20 15.0001C20 12.2387 17.7614 10.0001 15 10.0001ZM23.007 5.19305C24.0011 5.19305 24.807 5.99896 24.807 6.99308C24.807 7.9872 24.0011 8.79305 23.007 8.79305C22.0129 8.79305 21.207 7.9872 21.207 6.99308C21.207 5.99896 22.0129 5.19305 23.007 5.19305Z" fill="#39393B"/>
</svg>
