<svg width="38" height="35" viewBox="0 0 38 35" fill="none" xmlns="http://www.w3.org/2000/svg">
<path d="M19 34C17.8175 32.9513 16.481 31.8605 15.0676 30.7H15.0492C10.0717 26.63 4.43056 22.0247 1.93906 16.5063C1.12051 14.7494 0.686728 12.838 0.666708 10.9C0.661245 8.2407 1.7278 5.69145 3.62538 3.82838C5.52295 1.96531 8.09134 0.945702 10.7501 0.999987C12.9145 1.0034 15.0324 1.62897 16.8514 2.80215C17.6507 3.32091 18.3738 3.94844 19 4.66665C19.6298 3.95127 20.3532 3.3241 21.1505 2.80215C22.9688 1.62873 25.0861 1.00312 27.25 0.999987C29.9087 0.945702 32.4772 1.96531 34.3747 3.82838C36.2724 5.69145 37.3389 8.2407 37.3334 10.9C37.3147 12.8411 36.8809 14.7559 36.061 16.5155C33.5695 22.0338 27.9302 26.6373 22.9527 30.7L22.9344 30.7147C21.519 31.8678 20.1844 32.9587 19.0019 34.0147L19 34ZM10.7501 4.66665C9.04233 4.64528 7.39521 5.29886 6.16673 6.48532C4.98311 7.64795 4.32159 9.24089 4.33325 10.9C4.35416 12.3126 4.67408 13.7047 5.27206 14.9847C6.44816 17.3656 8.03509 19.5203 9.95989 21.35C11.7767 23.1833 13.8667 24.958 15.6744 26.4503C16.1749 26.8628 16.6845 27.279 17.1942 27.6952L17.515 27.9573C18.0045 28.357 18.5105 28.7713 19 29.1783L19.0239 29.1563L19.0349 29.1472H19.0459L19.0624 29.1343H19.0715H19.0807L19.1137 29.1068L19.1889 29.0463L19.2017 29.0353L19.2219 29.0207H19.2329L19.2494 29.006L20.4667 28.0068L20.7857 27.7446C21.3009 27.3248 21.8105 26.9087 22.311 26.4962C24.1187 25.0038 26.2105 23.231 28.0274 21.3885C29.9525 19.5599 31.5395 17.4056 32.7152 15.025C33.324 13.734 33.6485 12.3272 33.6669 10.9C33.6744 9.24601 33.0131 7.65918 31.8334 6.49999C30.6072 5.30817 28.9598 4.6492 27.25 4.66665C25.1635 4.64891 23.169 5.52348 21.7684 7.07015L19 10.2602L16.2317 7.07015C14.8312 5.52348 12.8365 4.64891 10.7501 4.66665Z" fill="#FF4747"/>
</svg>
